<svg width="80" height="56" viewBox="0 0 80 56" fill="none" xmlns="http://www.w3.org/2000/svg">
<g clip-path="url(#clip0_8_1409)">
<path d="M44.2162 18.655C45.1762 15.1242 47.513 13.0172 50.4688 13.0172C52.3397 13.0172 54.2078 13.895 55.8737 15.5568L57.8821 17.5588C57.9621 16.6418 58.3579 15.7892 59.019 15.1312L63.9243 10.2382C63.9467 10.0366 63.993 9.8392 64.0379 9.6432H41.6239V22.3608H43.2113L44.2162 18.655Z" fill="#4F1724"/>
<path d="M38.254 9.6418H13.7544V22.3594H38.254V9.6418Z" fill="#4F1724"/>
<path d="M27.8667 25.7362V38.4538H38.8393L42.2934 25.7362H27.8667Z" fill="#4F1724"/>
<path d="M37.9972 41.8138H13.7544V54.53H38.254V45.5532C37.8723 44.4444 37.7825 43.176 37.9972 41.8138Z" fill="#4F1724"/>
<path d="M24.4996 25.7362H0V38.4524H24.4996V25.7362Z" fill="#4F1724"/>
<path d="M67.2659 25.7362L66.6722 26.327L71.9143 31.556C74.0154 33.6518 74.8729 36.1494 74.2708 38.409C74.2666 38.4244 74.2596 38.437 74.254 38.4524H80.2357V25.7362H67.2659Z" fill="#4F1724"/>
<path d="M44.1558 49.5124C43.2407 49.5124 42.3902 49.35 41.6224 49.0546V54.53H66.1221V43.911L46.7326 49.1498C45.8414 49.3906 44.9754 49.5124 44.1558 49.5124Z" fill="#4F1724"/>
<path d="M64.6204 27.4484L59.2 32.8538C58.8716 33.1814 58.4407 33.3452 58.0098 33.3452C57.5776 33.3452 57.1481 33.1814 56.8183 32.8538C56.6119 32.648 56.494 32.3974 56.4168 32.1342C56.5698 32.1804 56.727 32.2252 56.8856 32.2252C57.3179 32.2252 57.7474 32.0614 58.0772 31.7338L66.8702 22.9628C67.5284 22.3062 67.5284 21.2436 66.8702 20.587L64.1783 17.9018L68.553 13.5366C68.6821 13.5548 68.8112 13.573 68.9418 13.573C69.6604 13.573 70.3775 13.3 70.9263 12.7526L77.5172 6.1768C78.6133 5.0834 78.6133 3.311 77.5172 2.2176C76.4225 1.1242 74.6428 1.1242 73.5481 2.2176L66.9572 8.7934C66.3088 9.4388 66.0533 10.3208 66.1712 11.1594L60.6035 16.7132C59.9453 17.3684 59.9453 18.4338 60.6035 19.089L63.2954 21.7742L61.1144 23.9498L54.2849 17.1374C51.0976 13.9594 47.5607 14.9002 46.3832 19.2374L40.4014 41.258C39.2239 45.5966 41.7951 48.1614 46.1446 46.9854L68.2204 41.02C72.5698 39.8454 73.513 36.316 70.3256 33.138L64.6204 27.4484Z" fill="#4F1724"/>
</g>
<defs>
<clipPath id="clip0_8_1409">
<rect width="80" height="56" fill="white"/>
</clipPath>
</defs>
</svg>
