<svg width="70" height="56" viewBox="0 0 70 56" fill="none" xmlns="http://www.w3.org/2000/svg">
<g clip-path="url(#clip0_8_1441)">
<path d="M65.3872 24.7234H52.6705H39.9538V33.3021H27.2354H22.5382V53.5777H27.2354H65.3872H70.0844V24.7234H65.3872ZM33.0956 48.894H29.068V43.0986H33.0956V48.894ZM33.0956 40.314H29.068V34.5198H33.0956V40.314ZM38.1195 48.894H34.09V45.5363H38.1195V48.894ZM38.1195 44.8751H34.09V43.0986H38.1195V44.8751ZM38.1195 40.314H34.09V36.9588H38.1195V40.314ZM38.1195 36.2975H34.09V34.5198H38.1195V36.2975ZM45.8123 48.894H41.7882V43.0986H45.8123V48.894ZM45.8123 40.314H41.7882V34.5198H45.8123V40.314ZM45.8123 31.7365H41.7882V25.9423H45.8123V31.7365ZM50.8344 48.894H46.8085V45.5363H50.8344V48.894ZM50.8344 44.8751H46.8085V43.0986H50.8344V44.8751ZM50.8344 40.314H46.8085V36.9588H50.8344V40.314ZM50.8344 36.2975H46.8085V34.5198H50.8344V36.2975ZM50.8344 31.7365H46.8085V28.3789H50.8344V31.7365ZM50.8344 27.7188H46.8085V25.9423H50.8344V27.7188ZM58.5326 48.894H54.5049V43.0986H58.5326V48.894ZM58.5326 40.314H54.5049V34.5198H58.5326V40.314ZM58.5326 31.7365H54.5049V25.9423H58.5326V31.7365ZM63.5528 48.894H59.5269V45.5363H63.5528V48.894ZM63.5528 44.8751H59.5269V43.0986H63.5528V44.8751ZM63.5528 40.314H59.5269V36.9588H63.5528V40.314ZM63.5528 36.2975H59.5269V34.5198H63.5528V36.2975ZM63.5528 31.7365H59.5269V28.3789H63.5528V31.7365ZM63.5528 27.7188H59.5269V25.9423H63.5528V27.7188Z" fill="#E9F5FB"/>
<path d="M27.4436 12.5654H18.6398V18.1249H24.7711L27.4436 12.5654ZM23.3064 16.794H20.6446V13.8951H24.7011L23.3064 16.794Z" fill="#E9F5FB"/>
<path d="M17.1644 50.8432V11.5837H29.2762V18.6849H29.1631V19.4749L29.7446 20.0361H30.2185V20.3614C30.2185 20.4221 30.2921 20.471 30.3836 20.471C30.73 20.471 31.0136 20.658 31.0136 20.8892C31.0136 21.0262 30.9095 21.1489 30.7551 21.2252L30.3262 21.1037C30.2903 21.0941 30.2562 21.0941 30.2203 21.1037L29.9456 21.1847C29.9205 21.1704 29.8972 21.1561 29.8792 21.1382C29.8236 21.0894 29.7213 21.0786 29.6477 21.1144C29.5741 21.1513 29.5562 21.2192 29.6118 21.2681C29.6172 21.2705 29.6226 21.2729 29.6244 21.2776L24.7818 22.6776H23.9831V31.2551H36.7015V22.6776H35.8974L31.0872 21.3193C31.2433 21.2049 31.3438 21.0536 31.3438 20.8892C31.3438 20.5746 30.9992 20.3137 30.5487 20.2613V20.0361H30.9382L31.5197 19.4749V18.6849H31.4677V11.5837H37.4895C37.7641 11.5837 38.0154 11.4705 38.1141 11.2989C38.2128 11.1285 38.1428 10.9319 37.9346 10.8104L30.9364 6.65447C30.8162 6.5806 30.6546 6.54009 30.4895 6.54009H17.1644V2.82621C17.1644 2.58196 16.861 2.38298 16.4913 2.38298H7.6641C7.29436 2.38298 6.99641 2.58196 6.99641 2.82621V6.5389H0.665897C0.297949 6.5389 0 6.73787 0 6.98213V11.1404C0 11.3847 0.297949 11.5837 0.665897 11.5837H6.99641V50.8432H4.19282L3.01538 51.9775V53.5777H7.6641H16.4913H21.1454V51.9775L19.9679 50.8432H17.1644ZM30.2741 21.2788L30.3692 21.305C30.3208 21.305 30.2705 21.3003 30.2256 21.2907L30.2741 21.2788ZM29.8433 29.6907H25.8192V23.8965H29.8433V29.6907ZM34.8672 29.6907H30.8395V26.3331H34.8672V29.6907ZM34.8672 25.673H30.8395V23.8965H34.8672V25.673ZM35.2244 22.6776H25.4387L29.8344 21.4075C29.9941 21.4826 30.1826 21.5266 30.3836 21.5266C30.5559 21.5266 30.7138 21.4957 30.8538 21.4432L35.2244 22.6776ZM31.0944 18.6849H29.6441V11.5837H31.0944V18.6849ZM31.1572 7.97583L35.7377 10.6948H31.1572V7.97583ZM29.8218 7.42655V10.1467L25.2395 7.42655H29.8218ZM24.1608 7.97464L28.7395 10.6948H24.1608V7.97464ZM22.8218 7.42655V10.1455L18.2431 7.42655H22.8218ZM17.1644 7.97583L21.7431 10.6948H17.1644V7.97583ZM14.3967 7.42655L12.0795 8.51677L9.76231 7.42655H14.3967ZM9.76231 6.5389L12.0795 5.44868L14.3949 6.5389H9.76231ZM15.8236 7.84119V10.2814L13.2336 9.06009L15.8236 7.84119ZM14.3967 10.696H9.76231L12.0795 9.60579L14.3967 10.696ZM15.8236 11.9971V14.4373L13.2336 13.2172L15.8236 11.9971ZM14.3967 11.5837L12.0795 12.6739L9.76231 11.5837H14.3967ZM15.3372 15.2951L12.0795 16.8298L8.82 15.2951L12.0795 13.7617L15.3372 15.2951ZM15.8236 16.1542V18.5944L13.2336 17.3743L15.8236 16.1542ZM15.3372 19.4511L12.0795 20.9857L8.82 19.4511L12.0795 17.9176L15.3372 19.4511ZM15.8236 20.3101V22.7503L13.2336 21.5302L15.8236 20.3101ZM15.3372 23.6082L12.0795 25.1428L8.82 23.6094L12.0795 22.0747L15.3372 23.6082ZM15.8236 24.466V26.9074L13.2336 25.6873L15.8236 24.466ZM15.7967 27.9797L12.0813 29.73L8.3659 27.9797L12.0813 26.2294L15.7967 27.9797ZM15.8236 29.0545V29.7026V31.4946L13.2336 30.2746L15.8236 29.0545ZM15.3372 32.3513L12.0795 33.886L8.82 32.3513L12.0795 30.8179L15.3372 32.3513ZM15.8236 33.2104V35.6506L13.2336 34.4305L15.8236 33.2104ZM15.3372 36.5084L12.0795 38.0431L8.82 36.5084L12.0795 34.975L15.3372 36.5084ZM15.8236 37.3663V39.8065L13.2336 38.5864L15.8236 37.3663ZM15.3372 40.6643L12.0795 42.199L8.82 40.6643L12.0795 39.1309L15.3372 40.6643ZM15.8236 41.5234V43.9636L13.2336 42.7435L15.8236 41.5234ZM15.3372 44.8203L12.0795 46.3549L8.82 44.8203L12.0795 43.2868L15.3372 44.8203ZM15.8236 45.6793V48.1195L13.2336 46.8994L15.8236 45.6793ZM15.3372 48.9774L12.0795 50.512L8.82 48.9786L12.0795 47.4439L15.3372 48.9774ZM15.8236 49.8352V50.8432H13.6823L15.8236 49.8352ZM15.8236 6.12545L13.2336 4.90417L15.8236 3.68528V6.12545ZM14.3967 3.27064L12.0795 4.36085L9.76231 3.27064H14.3967ZM8.3318 3.68528L10.9218 4.90417L8.3318 6.12545V3.68528ZM8.3318 7.84119L10.9218 9.06009L8.3318 10.2814V7.84119ZM8.3318 11.9971L10.9218 13.2172L8.3318 14.4373V11.9971ZM8.3318 16.1542L10.9218 17.3743L8.3318 18.5944V16.1542ZM8.3318 20.3101L10.9218 21.529L8.3318 22.7491V20.3101ZM8.3318 26.258V24.466L10.9218 25.6861L8.3318 26.9062V26.258ZM8.3318 29.7026V29.0545L10.9218 30.2734L8.3318 31.4934V29.7026ZM8.3318 33.2104L10.9218 34.4305L8.3318 35.6506V33.2104ZM8.3318 37.3663L10.9218 38.5864L8.3318 39.8065V37.3663ZM8.3318 41.5234L10.9218 42.7423L8.3318 43.9624V41.5234ZM8.3318 45.6793L10.9218 46.8982L8.3318 48.1183V45.6793ZM1.33538 10.696V7.97583L5.91769 10.6948H1.33538V10.696ZM2.4159 7.42655H6.99821V10.1455L2.4159 7.42655ZM8.3318 49.8352L10.4731 50.8432H8.3318V49.8352Z" fill="#E9F5FB"/>
</g>
<defs>
<clipPath id="clip0_8_1441">
<rect width="70" height="56" fill="white"/>
</clipPath>
</defs>
</svg>
