<svg width="36" height="36" viewBox="0 0 36 36" fill="none" xmlns="http://www.w3.org/2000/svg">
<path d="M19.5 13.5H27.75L19.5 5.25V13.5ZM9 3H21L30 12V30C30 30.7956 29.6839 31.5587 29.1213 32.1213C28.5587 32.6839 27.7956 33 27 33H9C8.20435 33 7.44129 32.6839 6.87868 32.1213C6.31607 31.5587 6 30.7956 6 30V6C6 5.20435 6.31607 4.44129 6.87868 3.87868C7.44129 3.31607 8.20435 3 9 3ZM16.395 18.66C17.01 20.01 17.79 21.12 18.69 21.885L19.305 22.365C18 22.605 16.2 23.025 14.295 23.76L14.13 23.82L14.88 22.26C15.555 20.955 16.05 19.77 16.395 18.66ZM26.115 24.375C26.385 24.105 26.52 23.76 26.535 23.385C26.58 23.085 26.505 22.8 26.355 22.56C25.92 21.855 24.795 21.525 22.935 21.525L21 21.63L19.695 20.76C18.75 19.98 17.895 18.615 17.295 16.92L17.355 16.71C17.85 14.715 18.315 12.3 17.325 11.31C17.2039 11.1924 17.0607 11.1 16.9036 11.0382C16.7465 10.9764 16.5788 10.9465 16.41 10.95H16.05C15.495 10.95 15 11.535 14.865 12.105C14.31 14.1 14.64 15.195 15.195 17.01V17.025C14.82 18.345 14.34 19.875 13.575 21.42L12.135 24.12L10.8 24.855C9 25.98 8.145 27.24 7.98 28.035C7.92 28.32 7.95 28.575 8.055 28.845L8.1 28.92L8.82 29.385L9.48 29.55C10.695 29.55 12.075 28.125 13.935 24.945L14.205 24.84C15.75 24.345 17.67 24 20.25 23.715C21.795 24.48 23.61 24.825 24.75 24.825C25.41 24.825 25.86 24.66 26.115 24.375ZM25.5 23.31L25.635 23.475C25.62 23.625 25.575 23.64 25.5 23.67H25.44L25.155 23.7C24.465 23.7 23.4 23.415 22.305 22.935C22.44 22.785 22.5 22.785 22.65 22.785C24.75 22.785 25.35 23.16 25.5 23.31ZM11.745 25.5C10.77 27.285 9.885 28.275 9.21 28.5C9.285 27.93 9.96 26.94 11.025 25.965L11.745 25.5ZM16.275 15.135C15.93 13.785 15.915 12.69 16.17 12.06L16.275 11.88L16.5 11.955C16.755 12.315 16.785 12.795 16.635 13.605L16.59 13.845L16.35 15.075L16.275 15.135Z" fill="white"/>
</svg>
