<svg width="37" height="36" viewBox="0 0 37 36" fill="none" xmlns="http://www.w3.org/2000/svg">
<path d="M32.2168 14.7516C31.9355 14.4703 21.0863 3.40313 21.0863 3.40313C20.3551 2.65781 19.3777 2.25 18.3301 2.25C17.2824 2.25 16.3051 2.65781 15.5738 3.41016C15.5738 3.41016 4.77383 14.4141 4.44336 14.7586C4.11992 15.0961 3.70508 15.7992 3.70508 16.5938V31.5C3.70508 32.7375 4.71758 33.75 5.95508 33.75H30.7051C31.9426 33.75 32.9551 32.7375 32.9551 31.5V16.5234C32.9551 15.7008 32.491 15.0398 32.2168 14.7516ZM30.8527 17.7258L25.1504 23.6883C25.0941 23.7445 25.0941 23.8289 25.1504 23.8852L30.4449 29.5242C30.8035 29.8828 30.8035 30.4594 30.4449 30.818C30.2691 30.9937 30.0301 31.0852 29.798 31.0852C29.566 31.0852 29.327 30.9937 29.1512 30.818L18.534 19.4836C18.4215 19.3641 18.2316 19.3641 18.1262 19.4836L7.51602 30.8109C7.34023 30.9867 7.10117 31.0781 6.86914 31.0781C6.63711 31.0781 6.39805 30.9867 6.22227 30.8109C5.86367 30.4523 5.86367 29.8758 6.22227 29.5172L11.5168 23.8781C11.566 23.8219 11.566 23.7375 11.5168 23.6812L5.79336 17.7188C5.11133 17.0227 5.62461 15.2016 6.92539 15.2016H29.7348C30.8949 15.1945 31.5348 17.0367 30.8527 17.7258Z" fill="#EDE8E9"/>
</svg>
