<svg width="40" height="50" viewBox="0 0 40 50" fill="none" xmlns="http://www.w3.org/2000/svg">
<g clip-path="url(#clip0_25_48)">
<path fill-rule="evenodd" clip-rule="evenodd" d="M19.247 7.09771H21.125C21.4857 7.09771 21.7807 7.46443 21.7807 7.91272V10.4952C21.7807 10.9435 21.4857 11.3102 21.125 11.3102H19.247C18.8863 11.3102 18.5912 10.9435 18.5912 10.4952V7.91272C18.5906 7.46443 18.8863 7.09771 19.247 7.09771ZM0 42.7465H0.00413913L0.000591305 42.7428L18.1188 19.8204L18.0608 19.7557C17.0574 18.6078 16.7747 16.8065 17.1916 16.3928C17.3099 16.2752 17.5919 17.371 18.4688 17.9611C18.7113 18.1242 18.9945 18.2543 19.299 18.3263L19.8087 17.6803L19.9831 17.4599L20.1576 17.6803L20.5886 18.2264C20.8837 18.1037 21.1758 17.9045 21.4531 17.6076C22.5163 16.1988 22.1249 14.2741 20.986 13.6744C20.785 13.5678 20.2055 13.2937 19.8542 12.999C19.5243 12.7227 19.4007 12.4294 19.3895 12.137H21.125C21.3662 12.137 21.5927 12.0561 21.7872 11.9143C22.592 12.4236 23.4393 12.7433 23.9981 14.4475C24.4268 15.7549 24.3434 17.2923 23.7829 18.5108C23.4009 19.3412 22.8587 19.9409 22.2484 20.3245L39.9669 42.7421L39.9633 42.7458H40.0006V49.9993H0V42.7465ZM0.693601 42.7465H39.2733L21.7559 20.5832C20.662 21.0469 19.435 20.8919 18.5226 20.19L0.693601 42.7465ZM20.0098 18.3734L19.9837 18.341L19.9542 18.3785L20.0098 18.3734ZM36.1618 44.2317C35.2098 44.2317 34.4382 45.1908 34.4382 46.374C34.4382 47.5564 35.2098 48.5162 36.1618 48.5162C37.1132 48.5162 37.8855 47.5564 37.8855 46.374C37.8855 45.19 37.1138 44.2317 36.1618 44.2317ZM20.099 44.2317C19.1476 44.2317 18.3754 45.1908 18.3754 46.374C18.3754 47.5564 19.1476 48.5162 20.099 48.5162C21.051 48.5162 21.8227 47.5564 21.8227 46.374C21.8227 45.19 21.0516 44.2317 20.099 44.2317ZM11.9479 44.2317C10.9959 44.2317 10.2243 45.1908 10.2243 46.374C10.2243 47.5564 10.9959 48.5162 11.9479 48.5162C12.8993 48.5162 13.6716 47.5564 13.6716 46.374C13.6716 45.19 12.8993 44.2317 11.9479 44.2317ZM4.03684 44.2317C3.08543 44.2317 2.31318 45.1908 2.31318 46.374C2.31318 47.5564 3.08543 48.5162 4.03684 48.5162C4.98884 48.5162 5.76049 47.5564 5.76049 46.374C5.76049 45.19 4.98943 44.2317 4.03684 44.2317ZM28.2508 44.2317C27.2988 44.2317 26.5271 45.1908 26.5271 46.374C26.5271 47.5564 27.2988 48.5162 28.2508 48.5162C29.2028 48.5162 29.9744 47.5564 29.9744 46.374C29.9744 45.19 29.2034 44.2317 28.2508 44.2317ZM20.957 0V6.27095H19.4149V0H20.957Z" fill="white"/>
</g>
<defs>
<clipPath id="clip0_25_48">
<rect width="40" height="50" fill="white"/>
</clipPath>
</defs>
</svg>
