<svg width="40" height="58" viewBox="0 0 40 58" fill="none" xmlns="http://www.w3.org/2000/svg">
<g clip-path="url(#clip0_25_63)">
<path fill-rule="evenodd" clip-rule="evenodd" d="M2.06187 23.191H3.9581V28.3566H10.279V23.191H12.1758V28.3566H18.4968V23.191H20.393C20.393 37.2168 20.393 41.2333 20.393 55.2583H5.78829V51.076H5.50464H4.93951H4.46965V55.2583H2.06187L2.06133 51.076H1.91301H1.34842H0.742685L0.704252 51.0744L0.690178 51.0736C0.675021 51.072 0.659323 51.0696 0.644707 51.0664L0.613852 51.0592L0.606815 51.0576L0.577043 51.0488L0.570006 51.0464C0.547812 51.0384 0.526159 51.0296 0.505048 51.0184L0.491515 51.0119L0.482313 51.0071L0.472028 51.0015L0.468238 50.9991L0.456871 50.9911L0.451458 50.9879L0.439549 50.9799L0.433594 50.9759L0.428181 50.9727L0.415189 50.9631L0.409776 50.9591L0.402198 50.9527L0.394078 50.9471L0.385958 50.9407L0.374049 50.9311L0.372967 50.9303L0.358351 50.9175L0.35781 50.9167L0.34969 50.9095L0.327496 50.8878L0.319376 50.8798L0.289063 50.847C0.278236 50.8342 0.267951 50.8214 0.257125 50.8086L0.252253 50.803C0.236014 50.7821 0.220316 50.7597 0.205159 50.7365L0.204076 50.7349L0.184589 50.7029C0.173762 50.6852 0.164019 50.6668 0.153734 50.6484L0.133164 50.6068L0.11909 50.5723L0.115842 50.5651L0.0990608 50.5235L0.0914824 50.5043L0.0871519 50.4939L0.08228 50.4803L0.0692884 50.4402L0.0687471 50.4386L0.0557555 50.393L0.0546729 50.3906L0.0498011 50.373L0.0476358 50.3641L0.0438466 50.3497L0.0346442 50.3105L0.032479 50.2969L0.030855 50.2897L0.0276071 50.2737L0.02057 50.2368L0.0146155 50.1952L0.0129916 50.1824L0.0108263 50.1664L0.00920237 50.1544L0.00866106 50.1423L0.00811974 50.1359C0.00541316 50.1111 0.0032479 50.0855 0.00216526 50.0607L0.00162395 50.0527C0.000541316 50.0278 0 50.003 0 49.9774V49.9045V42.5009V41.8138V41.7346C0 41.4679 0.0649579 41.2229 0.17268 41.0315L0.183506 41.0131C0.192167 40.9979 0.200828 40.9835 0.210572 40.9699L0.218692 40.9587L0.22627 40.9474C0.240886 40.9266 0.256042 40.9066 0.271741 40.8866L0.291228 40.8634L0.318294 40.8345L0.339405 40.8129L0.347525 40.8057L0.38271 40.7745L0.409235 40.7529L0.416813 40.7481L0.425474 40.7417L0.448751 40.7264L0.475275 40.7096L0.484478 40.7048L0.49368 40.7L0.528324 40.6824C0.597072 40.652 0.669608 40.6352 0.743768 40.6352H1.14164H1.70515H2.06079L2.06187 23.191ZM9.77238 13.4652H10.7478C10.9351 13.4652 11.0883 13.6919 11.0883 13.9689V15.5648C11.0883 15.8418 10.9351 16.0685 10.7478 16.0685H9.77238C9.58454 16.0685 9.43135 15.8418 9.43135 15.5648V13.9689C9.43135 13.6919 9.58454 13.4652 9.77238 13.4652ZM24.5833 54.6233L21.3295 49.5706V53.1804L22.2595 54.6233H24.5833ZM29.5521 54.6233H27.2282L21.4042 45.5781H23.7286L29.5521 54.6233ZM34.5208 54.6233L28.6973 45.5781H26.3729L32.1969 54.6225H34.5208V54.6233ZM39.489 54.6233H37.1651L31.3411 45.5781H33.6655L39.489 54.6233ZM39.5637 47.0219L38.6343 45.5789H36.3099L39.5637 50.6316V47.0219ZM20.8943 55.1718H40V45.0296H33.4739V27.4021L33.5026 27.3084L33.4739 27.2148V9.49438L33.5026 9.40069L33.4739 9.307V7.84325H35.2565H35.257L36.5561 6.49L35.257 5.13675H35.2565H35.0995L30.626 0.0912844L30.5454 0L30.4431 0.00080074L27.6959 0.00160148H27.6634L27.6385 0.0080074L26.112 0.446012H26.0503V0.463629L9.77184 5.13675H9.26408L7.96492 6.49L9.26408 7.84325H9.85953V12.7646H10.6601V7.84325H26.0497V45.0296H20.8943V55.1718ZM26.996 45.0296V7.84325H27.4193V9.3062L27.3906 9.39989L27.4193 9.49438V27.214L27.3906 27.3084L27.4193 27.4029V45.0304L26.996 45.0296ZM26.0497 5.13675H12.9434L26.0497 1.37407V5.13675ZM26.996 1.10262L27.7273 0.892825H29.9797L28.6876 5.13755H26.9954L26.996 1.10262ZM29.9077 17.6715H28.0245V11.4834L29.9077 17.6715ZM32.8687 11.4834V17.6715H30.986L32.8687 11.4834ZM32.8687 18.5668V25.2249L30.8431 18.5668H32.8687ZM32.8687 29.3912V36.1502H30.8122L32.8687 29.3912ZM32.8687 37.0454V43.1335L31.0163 37.0454H32.8687ZM28.0245 43.1327V37.0454H29.8769L28.0245 43.1327ZM28.0245 36.1502V29.392L30.0815 36.1502H28.0245ZM28.0245 25.2249V18.5668H30.0506L28.0245 25.2249ZM31.2134 1.87774L34.1034 5.13675H32.2051L31.2134 1.87774ZM28.1885 26.8632L30.4469 19.4428L32.7047 26.8632H28.1885ZM32.7031 27.7593L30.4469 35.1741L28.1907 27.7593H32.7031ZM28.1879 44.7742L30.4469 37.3513L32.7058 44.7742H28.1879ZM32.3664 7.84325L32.84 9.39989L30.4469 17.2656L28.0532 9.39989L28.5274 7.84325H32.3664ZM11.2247 16.5401C11.6004 16.8091 11.9799 17.067 12.2392 18.0078C12.4616 18.8158 12.4183 19.7663 12.1271 20.519C11.4764 22.2021 9.93802 22.3527 9.15636 21.2877C8.63507 20.5782 8.48838 19.4652 8.7049 19.209C8.76607 19.1361 8.91331 19.8135 9.36856 20.1778C9.77346 20.5021 10.3976 20.6223 10.9178 19.9592C11.4699 19.0888 11.267 17.8989 10.6753 17.529C10.5714 17.4641 10.2698 17.2936 10.088 17.1118C9.97645 17.0005 9.91041 16.8852 9.87577 16.7683H10.7473C10.9259 16.7691 11.0905 16.6842 11.2247 16.5401ZM29.3512 5.13675L30.4474 1.53422L31.543 5.13675H29.3512ZM1.6115 50.5763H2.25404L1.31594 49.0165H1.87999L2.81863 50.5763H3.46117L2.52253 49.0165H3.08713L4.02523 50.5763H4.63854L3.70044 49.0165H4.26449L5.20313 50.5763H5.84513L4.90649 49.0165H5.47108L6.40972 50.5763H7.05172L6.11362 49.0165H6.67822L7.61632 50.5763H8.25236L7.31426 49.0165H7.87885L8.81695 50.5763H9.4595L8.52085 49.0165H9.08545L9.85682 50.2985C9.89634 50.2056 9.92016 50.0959 9.92016 49.9782V49.3368L9.72799 49.0173H9.92016V42.5017H9.46762L8.64644 41.1364H8.0039L8.82507 42.5017H8.26048L7.43931 41.1364H6.80326L7.62444 42.5017H7.05984L6.23867 41.1364H5.59721L6.41892 42.5017H5.85433L5.03316 41.1364H4.39061L5.21179 42.5017H4.6472L3.82602 41.1364H3.21325L4.03497 42.5017H3.46984L2.64812 41.1364H2.00612L2.82783 42.5017H2.26324L1.44207 41.1364H0.799524L1.6207 42.5017H1.05665L0.402198 41.4143C0.36214 41.5072 0.338322 41.6177 0.338322 41.7354V42.3768L0.413024 42.5017H0.338322V49.0173H0.673397L1.6115 50.5763ZM0.338322 49.3969V49.9774C0.338322 50.3057 0.520746 50.5755 0.742685 50.5755H1.04745L0.338322 49.3969ZM9.91907 42.3127V41.7346C9.91907 41.4063 9.73611 41.1356 9.51417 41.1356H9.21103L9.91907 42.3127ZM3.22733 44.0911C3.19864 44.1064 3.17211 44.1168 3.14938 44.1224C3.1261 44.1288 3.09903 44.132 3.06872 44.132C2.89766 44.132 2.81159 43.9823 2.81159 43.6844C2.81159 43.5338 2.83325 43.4201 2.87547 43.3441C2.91823 43.2672 2.97886 43.2296 3.05844 43.2296C3.08929 43.2296 3.11636 43.2328 3.13855 43.2392C3.16074 43.2456 3.18619 43.256 3.21542 43.2704C3.2257 43.2352 3.23436 43.1999 3.24302 43.1647C3.25114 43.1303 3.25602 43.0942 3.25764 43.0574C3.21866 43.0342 3.1824 43.019 3.14883 43.0118C3.11527 43.0037 3.07901 42.9997 3.03895 42.9997C2.97182 42.9997 2.91228 43.0166 2.85977 43.051C2.80726 43.0854 2.76288 43.1335 2.72715 43.1943C2.69142 43.256 2.66382 43.328 2.64487 43.4121C2.62592 43.4954 2.61618 43.5867 2.61618 43.6844C2.61618 43.7821 2.62538 43.8725 2.64325 43.9558C2.66165 44.0391 2.68872 44.1112 2.72444 44.172C2.76017 44.2329 2.80456 44.2793 2.85761 44.313C2.91066 44.3466 2.97237 44.3634 3.04274 44.3634C3.08225 44.3634 3.1196 44.3602 3.15371 44.3522C3.18781 44.345 3.22678 44.3298 3.26955 44.3065C3.2663 44.2697 3.26089 44.2337 3.25439 44.1968C3.24735 44.1608 3.23815 44.1256 3.22733 44.0911ZM3.6122 43.0214L3.33072 44.341C3.36049 44.3482 3.39026 44.3522 3.42112 44.3522C3.44818 44.3522 3.47633 44.349 3.5061 44.341L3.55753 44.0767H3.85255L3.90235 44.341C3.93212 44.3482 3.96243 44.3522 3.99437 44.3522C4.02631 44.3522 4.05933 44.349 4.09343 44.341L3.81411 43.0214C3.79571 43.0182 3.77839 43.015 3.76215 43.0134C3.74645 43.0118 3.73021 43.011 3.71343 43.011C3.69448 43.011 3.6777 43.011 3.66146 43.0134C3.64576 43.015 3.62952 43.0182 3.6122 43.0214ZM3.81086 43.8549L3.70801 43.3008L3.59975 43.8549H3.81086ZM4.1887 43.0214V43.7628C4.1887 43.8525 4.19412 43.9342 4.20332 44.0079C4.21306 44.0815 4.23147 44.1448 4.25691 44.1976C4.28289 44.2497 4.31699 44.2905 4.35976 44.3194C4.40252 44.3482 4.45774 44.3626 4.52378 44.3626C4.58982 44.3626 4.64449 44.3482 4.6878 44.3194C4.73056 44.2905 4.7652 44.2497 4.7901 44.1976C4.81609 44.1448 4.83341 44.0815 4.8437 44.0079C4.85398 43.9342 4.85831 43.8525 4.85831 43.7628V43.0214C4.84261 43.0182 4.82746 43.0158 4.81176 43.0142C4.79714 43.0134 4.78144 43.0126 4.76683 43.0126C4.75275 43.0126 4.73814 43.0134 4.72352 43.0142C4.70891 43.015 4.69267 43.0174 4.67589 43.0214V43.706C4.67589 43.7805 4.67426 43.8445 4.67047 43.8974C4.66669 43.9502 4.65965 43.9951 4.64828 44.0295C4.63691 44.0647 4.62121 44.0904 4.60119 44.1064C4.5817 44.1232 4.55572 44.1312 4.52324 44.1312C4.49076 44.1312 4.46477 44.1232 4.4442 44.1064C4.42418 44.0896 4.40848 44.0647 4.39657 44.0295C4.38574 43.9951 4.37816 43.9502 4.37437 43.8974C4.37059 43.8445 4.36896 43.7805 4.36896 43.706V43.0214C4.35326 43.0182 4.33756 43.0158 4.32295 43.0142C4.30833 43.0134 4.29318 43.0126 4.27964 43.0126C4.26395 43.0126 4.24825 43.0134 4.23363 43.0142C4.2201 43.0158 4.2044 43.0182 4.1887 43.0214ZM5.19988 43.2488V44.341C5.21612 44.3442 5.2329 44.3466 5.2486 44.3482C5.26484 44.349 5.28054 44.3498 5.29407 44.3498C5.3076 44.3498 5.32276 44.349 5.33738 44.3474C5.35199 44.3458 5.36715 44.3434 5.38176 44.341V43.2488H5.6037C5.60912 43.2119 5.61182 43.1735 5.61182 43.1335C5.61182 43.0958 5.60912 43.0582 5.6037 43.0214H4.9774C4.97253 43.0582 4.96982 43.0958 4.96982 43.1335C4.96982 43.1735 4.97253 43.2119 4.9774 43.2488H5.19988ZM5.72983 43.0214V44.341C5.76014 44.3482 5.79046 44.3522 5.82131 44.3522C5.85054 44.3522 5.88032 44.349 5.91171 44.341V43.0214C5.88032 43.0142 5.85 43.011 5.82023 43.011C5.78992 43.011 5.76014 43.0142 5.72983 43.0214ZM6.4487 44.3626C6.51582 44.3626 6.57374 44.3458 6.62246 44.3106C6.67118 44.2769 6.71124 44.2297 6.74317 44.1688C6.77457 44.108 6.79785 44.0367 6.813 43.9542C6.82816 43.8717 6.83628 43.7813 6.83628 43.6836C6.83628 43.5859 6.82816 43.4946 6.813 43.4113C6.79785 43.328 6.77457 43.2552 6.74317 43.1935C6.71124 43.1327 6.67118 43.0846 6.62246 43.0502C6.57374 43.0166 6.51582 42.9989 6.4487 42.9989C6.38212 42.9989 6.32419 43.0158 6.27548 43.0502C6.22676 43.0846 6.1867 43.1327 6.15476 43.1935C6.12337 43.2552 6.10009 43.3272 6.08493 43.4113C6.06978 43.4946 6.06166 43.5859 6.06166 43.6836C6.06166 43.7813 6.06978 43.8717 6.08493 43.9542C6.10009 44.0367 6.12337 44.108 6.15476 44.1688C6.1867 44.2297 6.22676 44.2769 6.27548 44.3106C6.32419 44.3458 6.38212 44.3626 6.4487 44.3626ZM6.4487 44.1392C6.57699 44.1392 6.64141 43.9879 6.64141 43.6844C6.64141 43.533 6.62625 43.4193 6.59485 43.3433C6.564 43.2672 6.51582 43.2296 6.45032 43.2296C6.32041 43.2296 6.25545 43.3817 6.25545 43.6852C6.25545 43.9879 6.31986 44.1392 6.4487 44.1392ZM6.98622 43.0214V44.341C7.01167 44.3482 7.03819 44.3522 7.06526 44.3522C7.09232 44.3522 7.11939 44.349 7.14537 44.341V43.5026L7.4929 44.341C7.5205 44.3482 7.54594 44.3522 7.56922 44.3522C7.59033 44.3522 7.61469 44.349 7.64122 44.341V43.0214C7.61686 43.0142 7.59196 43.011 7.56651 43.011C7.53891 43.011 7.51022 43.0142 7.48099 43.0214V43.8621L7.13617 43.0214C7.1091 43.0142 7.08366 43.011 7.05876 43.011C7.03603 43.011 7.01167 43.0142 6.98622 43.0214ZM1.32081 46.2652C1.29158 46.2804 1.2656 46.29 1.24286 46.2964C1.21958 46.3028 1.19252 46.3052 1.16221 46.3052C0.99115 46.3052 0.90508 46.1563 0.90508 45.8576C0.90508 45.707 0.926192 45.5933 0.968956 45.5173C1.01118 45.4404 1.07235 45.402 1.15192 45.402C1.18278 45.402 1.20876 45.4052 1.23095 45.4116C1.25315 45.418 1.27913 45.4284 1.30782 45.4428C1.3181 45.4076 1.32677 45.3723 1.33543 45.3371C1.34409 45.3027 1.34842 45.2666 1.35004 45.2298C1.31161 45.2066 1.2748 45.1914 1.24178 45.1842C1.20876 45.177 1.17141 45.173 1.13189 45.173C1.06477 45.173 1.00577 45.1898 0.952716 45.2242C0.900208 45.2586 0.855821 45.3067 0.820094 45.3675C0.784367 45.4292 0.75676 45.5013 0.737814 45.5845C0.718868 45.6686 0.709124 45.7591 0.709124 45.8576C0.709124 45.9553 0.718326 46.0458 0.736731 46.129C0.754594 46.2123 0.78166 46.2844 0.817928 46.3444C0.853114 46.4053 0.897502 46.4525 0.951092 46.4862C1.00414 46.5198 1.06531 46.5366 1.13568 46.5366C1.1752 46.5366 1.21309 46.5334 1.24665 46.5254C1.28075 46.5182 1.31973 46.503 1.36303 46.4798C1.35979 46.4429 1.35437 46.4069 1.34734 46.3701C1.34084 46.3348 1.33164 46.2996 1.32081 46.2652ZM1.82478 46.5374C1.89136 46.5374 1.94928 46.5206 1.998 46.4862C2.04726 46.4525 2.08677 46.4045 2.11871 46.3444C2.15011 46.2836 2.17338 46.2123 2.18908 46.1298C2.2037 46.0466 2.21182 45.9569 2.21182 45.8592C2.21182 45.7607 2.2037 45.6702 2.18908 45.5861C2.17338 45.5029 2.15011 45.43 2.11871 45.3691C2.08677 45.3083 2.04726 45.2602 1.998 45.2258C1.94928 45.1922 1.89136 45.1746 1.82478 45.1746C1.75765 45.1746 1.70027 45.1914 1.65101 45.2258C1.6023 45.2602 1.56224 45.3083 1.53084 45.3691C1.4989 45.4308 1.47563 45.5029 1.46047 45.5861C1.44531 45.6702 1.43719 45.7607 1.43719 45.8592C1.43719 45.9569 1.44531 46.0466 1.46047 46.1298C1.47563 46.2123 1.4989 46.2836 1.53084 46.3444C1.56224 46.4045 1.6023 46.4525 1.65101 46.4862C1.70027 46.5198 1.75765 46.5374 1.82478 46.5374ZM1.82478 46.3132C1.95253 46.3132 2.0164 46.1611 2.0164 45.8584C2.0164 45.707 2.00125 45.5925 1.96985 45.5173C1.93899 45.4412 1.89028 45.4028 1.82532 45.4028C1.69594 45.4028 1.63044 45.5549 1.63044 45.8584C1.63099 46.1611 1.69594 46.3132 1.82478 46.3132ZM2.36176 45.1962V46.515C2.3872 46.5222 2.41427 46.5262 2.44079 46.5262C2.4684 46.5262 2.49493 46.5222 2.52145 46.515V45.6766L2.86897 46.515C2.89604 46.5222 2.92148 46.5262 2.94476 46.5262C2.96587 46.5262 2.99023 46.5222 3.01675 46.515V45.1962C2.99239 45.189 2.96804 45.185 2.94205 45.185C2.91499 45.185 2.88684 45.189 2.85652 45.1962V46.0361L2.51171 45.1962C2.48518 45.189 2.4592 45.185 2.4343 45.185C2.4121 45.185 2.3872 45.189 2.36176 45.1962ZM3.35291 45.904L3.4287 45.9465C3.44331 45.9545 3.45793 45.9633 3.472 45.9729C3.48607 45.9817 3.49853 45.9929 3.50989 46.0065C3.52072 46.0201 3.52992 46.0361 3.53696 46.0562C3.54454 46.0754 3.54778 46.1002 3.54778 46.1298C3.54778 46.1883 3.53317 46.2323 3.5034 46.2612C3.47308 46.29 3.43248 46.3044 3.38052 46.3044C3.34642 46.3044 3.3134 46.2988 3.28254 46.2892C3.25169 46.2788 3.21921 46.2636 3.18456 46.2419C3.17536 46.2812 3.16778 46.3204 3.16074 46.3588C3.15425 46.3973 3.14938 46.4349 3.14721 46.4701C3.16832 46.4822 3.18781 46.4926 3.20676 46.5014C3.2257 46.5102 3.24465 46.5174 3.26414 46.5222C3.28362 46.5278 3.30419 46.5318 3.3253 46.5342C3.34696 46.5366 3.37132 46.5374 3.39892 46.5374C3.45414 46.5374 3.50286 46.527 3.54562 46.5062C3.58784 46.4854 3.62411 46.4565 3.6528 46.4197C3.68149 46.3837 3.70368 46.3388 3.71884 46.2876C3.734 46.2363 3.74158 46.1795 3.74158 46.117C3.74158 46.057 3.7367 46.0065 3.72696 45.9657C3.71722 45.9248 3.70368 45.8896 3.68582 45.8608C3.66796 45.832 3.6463 45.8079 3.62032 45.7887C3.59488 45.7695 3.56619 45.7503 3.53533 45.7319L3.46063 45.6894C3.44818 45.6822 3.43627 45.6742 3.42382 45.6662C3.41137 45.6582 3.40001 45.6486 3.38972 45.6366C3.37944 45.6246 3.37186 45.611 3.36644 45.5941C3.35995 45.5773 3.35724 45.5573 3.35724 45.5325C3.35724 45.5013 3.36103 45.4772 3.36807 45.458C3.37565 45.4388 3.38485 45.4244 3.39676 45.4148C3.40867 45.4052 3.42166 45.398 3.43573 45.3948C3.45035 45.3908 3.46442 45.3891 3.4785 45.3891C3.50177 45.3891 3.52234 45.3908 3.54021 45.3932C3.55861 45.3964 3.57485 45.4004 3.58947 45.4052C3.60354 45.41 3.61761 45.4164 3.63006 45.4236C3.64306 45.4308 3.65605 45.4388 3.66796 45.4452C3.68961 45.3763 3.7026 45.3075 3.70747 45.2362C3.66742 45.2154 3.62844 45.1994 3.59163 45.189C3.55482 45.1778 3.51476 45.1721 3.47308 45.1721C3.42653 45.1721 3.38485 45.1802 3.34804 45.197C3.31069 45.2138 3.27875 45.2378 3.25223 45.2706C3.2257 45.3027 3.20513 45.3427 3.19106 45.3908C3.17644 45.4388 3.1694 45.4932 3.1694 45.5565C3.1694 45.6078 3.17374 45.6518 3.18186 45.6886C3.19106 45.7255 3.20297 45.7567 3.21866 45.7831C3.23382 45.8095 3.25277 45.8328 3.2755 45.8512C3.29986 45.8704 3.32476 45.888 3.35291 45.904ZM4.04634 45.4236V46.515C4.06312 46.519 4.0799 46.5214 4.0956 46.5222C4.11184 46.5238 4.12699 46.5246 4.14107 46.5246C4.1546 46.5246 4.16976 46.5238 4.18437 46.5222C4.19899 46.5198 4.21414 46.5182 4.22876 46.5158V45.4244H4.4507C4.45611 45.3876 4.45828 45.3491 4.45828 45.3091C4.45828 45.2706 4.45611 45.2338 4.4507 45.197H3.82386C3.81898 45.233 3.81628 45.2706 3.81628 45.3091C3.81628 45.3491 3.81898 45.3876 3.82386 45.4244L4.04634 45.4236ZM4.58495 45.1962V46.515C4.60119 46.519 4.61797 46.5214 4.63312 46.5222C4.64882 46.5238 4.66398 46.5246 4.67805 46.5246C4.69159 46.5246 4.70674 46.5238 4.72136 46.5222C4.73597 46.5198 4.75113 46.5182 4.76575 46.5158V45.402C4.78036 45.3988 4.79768 45.3964 4.81555 45.3964C4.86264 45.3964 4.90107 45.414 4.93085 45.45C4.96116 45.486 4.97578 45.5429 4.97578 45.6198C4.97578 45.659 4.97036 45.6926 4.95954 45.7215C4.94871 45.7503 4.93572 45.7751 4.92056 45.7943C4.90595 45.8143 4.88971 45.8312 4.87293 45.8448C4.85669 45.8584 4.84207 45.8696 4.8307 45.8784L4.80093 45.9L5.03424 46.5134C5.06509 46.5206 5.09595 46.5246 5.12735 46.5246C5.14629 46.5246 5.1647 46.5238 5.1831 46.5206C5.20096 46.5182 5.21829 46.5158 5.23507 46.5134L5.01854 45.9553L5.03965 45.9353C5.05264 45.9224 5.06672 45.9064 5.08133 45.8864C5.09595 45.8664 5.11056 45.8424 5.12301 45.8143C5.13601 45.7863 5.14629 45.7535 5.15495 45.7159C5.16307 45.6782 5.16686 45.635 5.16686 45.5861C5.16686 45.5037 5.15658 45.4364 5.13438 45.3835C5.11273 45.3307 5.0835 45.2883 5.04831 45.257C5.01313 45.2258 4.97253 45.2034 4.92814 45.1914C4.88429 45.1786 4.83937 45.173 4.79389 45.173C4.75492 45.173 4.71973 45.1746 4.6878 45.1794C4.65532 45.1842 4.62121 45.1898 4.58495 45.1962ZM5.32926 45.1962V45.9369C5.32926 46.0265 5.33413 46.1082 5.34387 46.1819C5.35361 46.2556 5.37148 46.3188 5.39746 46.3717C5.4229 46.4245 5.45701 46.4645 5.49977 46.4934C5.54308 46.5222 5.59775 46.5366 5.66379 46.5366C5.72983 46.5366 5.78504 46.5222 5.82781 46.4934C5.87057 46.4645 5.90522 46.4237 5.93066 46.3717C5.9561 46.3188 5.97396 46.2556 5.98425 46.1819C5.99399 46.1082 5.99886 46.0265 5.99886 45.9369V45.1962C5.98317 45.1922 5.96747 45.1898 5.95231 45.189C5.93715 45.1882 5.92146 45.1874 5.90684 45.1874C5.89277 45.1874 5.87815 45.1882 5.86353 45.189C5.84892 45.1898 5.83268 45.1922 5.81644 45.1962V45.88C5.81644 45.9545 5.81427 46.0185 5.81049 46.0714C5.8067 46.125 5.79966 46.1691 5.78829 46.2035C5.77692 46.2387 5.76123 46.2644 5.74174 46.2804C5.72225 46.2972 5.69573 46.3052 5.66325 46.3052C5.63131 46.3052 5.60479 46.2972 5.58422 46.2804C5.56365 46.2636 5.54849 46.2387 5.53712 46.2035C5.52575 46.1691 5.51872 46.1242 5.51439 46.0714C5.51114 46.0185 5.50897 45.9545 5.50897 45.88V45.1962C5.49327 45.1922 5.47758 45.1898 5.46296 45.189C5.44835 45.1882 5.43373 45.1874 5.41966 45.1874C5.40396 45.1874 5.38826 45.1882 5.37364 45.189C5.35957 45.1898 5.34441 45.1922 5.32926 45.1962ZM6.75508 46.2652C6.72585 46.2804 6.70041 46.29 6.67713 46.2964C6.65386 46.3028 6.62679 46.3052 6.59702 46.3052C6.42596 46.3052 6.33989 46.1563 6.33989 45.8576C6.33989 45.707 6.361 45.5933 6.40377 45.5173C6.44599 45.4404 6.50716 45.402 6.58673 45.402C6.61759 45.402 6.64411 45.4052 6.66576 45.4116C6.68796 45.418 6.71394 45.4284 6.74263 45.4428C6.75292 45.4076 6.76158 45.3723 6.77024 45.3371C6.7789 45.3027 6.78323 45.2666 6.78485 45.2298C6.74642 45.2066 6.70961 45.1914 6.67659 45.1842C6.64303 45.177 6.60622 45.173 6.5667 45.173C6.49958 45.173 6.44058 45.1898 6.38753 45.2242C6.33502 45.2586 6.29063 45.3067 6.25491 45.3675C6.21918 45.4292 6.19157 45.5013 6.17263 45.5845C6.15368 45.6686 6.14394 45.7591 6.14394 45.8576C6.14394 45.9553 6.15314 46.0458 6.17154 46.129C6.18941 46.2123 6.21647 46.2844 6.25274 46.3444C6.28847 46.4053 6.33286 46.4525 6.3859 46.4862C6.43895 46.5198 6.50012 46.5366 6.57049 46.5366C6.61055 46.5366 6.64736 46.5334 6.68146 46.5254C6.71611 46.5182 6.75454 46.503 6.79785 46.4798C6.7946 46.4429 6.78919 46.4069 6.78215 46.3701C6.77511 46.3348 6.76591 46.2996 6.75508 46.2652ZM7.1064 45.4236V46.515C7.12264 46.519 7.13942 46.5214 7.15566 46.5222C7.17135 46.5238 7.18705 46.5246 7.20058 46.5246C7.21466 46.5246 7.22927 46.5238 7.24389 46.5222C7.25905 46.5198 7.2742 46.5182 7.28882 46.5158V45.4244H7.51076C7.51617 45.3876 7.51834 45.3491 7.51834 45.3091C7.51834 45.2706 7.51617 45.2338 7.51076 45.197H6.88446C6.87904 45.233 6.87688 45.2706 6.87688 45.3091C6.87688 45.3491 6.87904 45.3876 6.88446 45.4244L7.1064 45.4236ZM7.6358 45.1962V46.515C7.66666 46.5222 7.69697 46.5262 7.72783 46.5262C7.75652 46.5262 7.78683 46.5222 7.81823 46.515V45.1962C7.78683 45.189 7.75652 45.185 7.7262 45.185C7.69697 45.185 7.66666 45.189 7.6358 45.1962ZM8.35575 46.5374C8.42288 46.5374 8.4808 46.5206 8.52952 46.4862C8.57823 46.4525 8.61829 46.4045 8.64969 46.3444C8.68163 46.2836 8.70436 46.2123 8.72006 46.1298C8.73522 46.0466 8.74279 45.9569 8.74279 45.8592C8.74279 45.7607 8.73522 45.6702 8.72006 45.5861C8.7049 45.5029 8.68163 45.43 8.64969 45.3691C8.61829 45.3083 8.57823 45.2602 8.52952 45.2258C8.48026 45.1922 8.42288 45.1746 8.35575 45.1746C8.28863 45.1746 8.23071 45.1914 8.18199 45.2258C8.13327 45.2602 8.09321 45.3083 8.06182 45.3691C8.03042 45.4308 8.00715 45.5029 7.99145 45.5861C7.97629 45.6702 7.96871 45.7607 7.96871 45.8592C7.96871 45.9569 7.97629 46.0466 7.99145 46.1298C8.0066 46.2123 8.03042 46.2836 8.06182 46.3444C8.09321 46.4045 8.13327 46.4525 8.18199 46.4862C8.23071 46.5198 8.28809 46.5374 8.35575 46.5374ZM8.35575 46.3132C8.4835 46.3132 8.54846 46.1611 8.54846 45.8584C8.54846 45.707 8.53276 45.5925 8.50191 45.5173C8.47051 45.4412 8.42288 45.4028 8.35738 45.4028C8.228 45.4028 8.16304 45.5549 8.16304 45.8584C8.16196 46.1611 8.22638 46.3132 8.35575 46.3132ZM8.89274 45.1962V46.515C8.91872 46.5222 8.94525 46.5262 8.97177 46.5262C8.99938 46.5262 9.02644 46.5222 9.05243 46.515V45.6766L9.39995 46.515C9.42702 46.5222 9.45246 46.5262 9.47574 46.5262C9.49739 46.5262 9.52121 46.5222 9.54773 46.515V45.1962C9.52391 45.189 9.49901 45.185 9.47303 45.185C9.44596 45.185 9.41727 45.189 9.38804 45.1962V46.0361L9.04268 45.1962C9.01616 45.189 8.99072 45.185 8.96582 45.185C8.94308 45.185 8.91872 45.189 8.89274 45.1962ZM3.38593 47.3702L3.59813 48.689C3.6279 48.6962 3.65605 48.7002 3.68095 48.7002C3.69935 48.7002 3.71559 48.6994 3.73129 48.697C3.74645 48.6946 3.76431 48.6922 3.78434 48.6898L3.93807 47.8106L4.08098 48.6898C4.11779 48.697 4.15243 48.701 4.18329 48.701C4.21631 48.701 4.24662 48.6978 4.27694 48.6898L4.4913 47.371C4.47614 47.3686 4.46098 47.3662 4.44529 47.3638C4.42959 47.3614 4.41335 47.3606 4.39657 47.3606C4.36896 47.3606 4.34298 47.3638 4.31754 47.3718L4.18924 48.3887L4.02956 47.3702C4.00032 47.363 3.97326 47.359 3.9489 47.359C3.93428 47.359 3.91967 47.3598 3.90559 47.3614C3.89152 47.363 3.87582 47.3654 3.85958 47.3694L3.70585 48.3623L3.5781 47.3694C3.56348 47.3646 3.54833 47.3614 3.53317 47.3606C3.51801 47.3598 3.50231 47.359 3.4877 47.359C3.44927 47.359 3.4157 47.3622 3.38593 47.3702ZM4.93734 48.7114C5.00447 48.7114 5.06239 48.6946 5.11111 48.6602C5.15982 48.6265 5.19988 48.5785 5.23182 48.5184C5.26322 48.4576 5.28649 48.3863 5.30165 48.3038C5.31681 48.2206 5.32438 48.1309 5.32438 48.0332C5.32438 47.9347 5.31681 47.8442 5.30165 47.7601C5.28649 47.6769 5.26322 47.604 5.23182 47.5431C5.19988 47.4823 5.15982 47.4342 5.11111 47.3998C5.06239 47.3654 5.00447 47.3486 4.93734 47.3486C4.87022 47.3486 4.8123 47.3654 4.76412 47.3998C4.71486 47.4334 4.6748 47.4823 4.64341 47.5431C4.61201 47.6048 4.58874 47.6769 4.57304 47.7601C4.55842 47.8442 4.5503 47.9347 4.5503 48.0332C4.5503 48.1309 4.55842 48.2206 4.57304 48.3038C4.58874 48.3863 4.61201 48.4576 4.64341 48.5184C4.6748 48.5785 4.71486 48.6265 4.76412 48.6602C4.81284 48.6946 4.87022 48.7114 4.93734 48.7114ZM4.93734 48.4872C5.06564 48.4872 5.12951 48.3359 5.12951 48.0324C5.12951 47.8803 5.11435 47.7665 5.08296 47.6905C5.05156 47.6144 5.00338 47.5768 4.93843 47.5768C4.80851 47.5768 4.74355 47.7281 4.74355 48.0324C4.74409 48.3359 4.80851 48.4872 4.93734 48.4872ZM5.48353 47.3702V48.689C5.49977 48.693 5.51655 48.6954 5.53171 48.6962C5.54741 48.697 5.56256 48.6978 5.57664 48.6978C5.59017 48.6978 5.60533 48.697 5.61994 48.6954C5.63456 48.6938 5.64971 48.6914 5.66433 48.689V47.5752C5.67949 47.5712 5.69627 47.5696 5.71413 47.5696C5.76177 47.5696 5.79966 47.5872 5.82943 47.6232C5.85975 47.6592 5.87436 47.7161 5.87436 47.793C5.87436 47.8322 5.86895 47.8658 5.85812 47.8947C5.84729 47.9235 5.83485 47.9475 5.81915 47.9675C5.80453 47.9875 5.78829 48.0044 5.77151 48.018C5.75527 48.0316 5.74066 48.0428 5.72929 48.0516L5.69952 48.0732L5.93282 48.6866C5.96368 48.6938 5.99453 48.6978 6.02593 48.6978C6.04488 48.6978 6.06328 48.697 6.08168 48.6938C6.09955 48.6914 6.11741 48.689 6.13419 48.6866L5.91712 48.1285L5.93824 48.1085C5.95123 48.0957 5.9653 48.0796 5.97992 48.0596C5.99507 48.0396 6.00915 48.0148 6.0216 47.9876C6.03405 47.9595 6.04488 47.9267 6.05354 47.8891C6.06166 47.8522 6.06599 47.809 6.06599 47.7601C6.06599 47.6777 6.05516 47.6104 6.03297 47.5576C6.01131 47.5047 5.98208 47.4623 5.9469 47.431C5.91171 47.3998 5.87111 47.3782 5.82673 47.3654C5.78288 47.3534 5.73795 47.3478 5.69248 47.3478C5.6535 47.3478 5.61832 47.3494 5.58638 47.3542C5.5539 47.359 5.5198 47.3638 5.48353 47.3702ZM6.43949 48.0252L6.69987 48.689C6.71936 48.6938 6.73722 48.697 6.754 48.6986C6.7697 48.7002 6.78485 48.7002 6.79785 48.7002C6.81192 48.7002 6.82816 48.6994 6.84548 48.697C6.86335 48.6946 6.88175 48.6922 6.90124 48.6898L6.63599 48.0076L6.88013 47.371C6.86118 47.3686 6.84278 47.3662 6.82545 47.3638C6.80813 47.3614 6.79243 47.3606 6.77836 47.3606C6.76428 47.3606 6.74967 47.3614 6.73397 47.3622C6.71827 47.363 6.69987 47.3662 6.68092 47.371L6.43949 48.0252ZM6.23271 47.3678V48.6906C6.24841 48.6938 6.26411 48.697 6.27872 48.6978C6.29334 48.6994 6.3085 48.6994 6.32311 48.6994C6.33773 48.6994 6.35343 48.6994 6.36804 48.6978C6.38266 48.697 6.39836 48.6938 6.41405 48.6906V47.3678C6.39836 47.3646 6.38266 47.3622 6.36804 47.3606C6.35343 47.3598 6.33827 47.359 6.32474 47.359C6.30904 47.359 6.29334 47.3598 6.27872 47.3606C6.26357 47.3622 6.24841 47.3646 6.23271 47.3678ZM3.52992 55.7283H6.72748V57.9992H3.52992V55.7283ZM15.5618 42.0036V47.7433H17.2604V42.0036H15.5618ZM15.1774 47.7433V42.0036H15.1276H13.3797V47.7433H15.1276H15.1774ZM18.4962 31.1616H12.1753V38.8231H18.4962V31.1616ZM3.9581 31.1616V38.8231H10.279V31.1616H3.9581Z" fill="white"/>
</g>
<defs>
<clipPath id="clip0_25_63">
<rect width="40" height="58" fill="white"/>
</clipPath>
</defs>
</svg>
