<svg width="40" height="58" viewBox="0 0 40 58" fill="none" xmlns="http://www.w3.org/2000/svg">
<g clip-path="url(#clip0_25_99)">
<path fill-rule="evenodd" clip-rule="evenodd" d="M5.70165 2.07768H34.2975V0H5.70165V2.07768ZM0 51.873H40V58.0008H0V51.873ZM1.34544 7.41951H9.59407V50.9888H1.34544V7.41951ZM30.4059 7.41951H38.6554V50.9888H30.4059V7.41951ZM10.5685 13.2945V14.8861H29.4307V13.2945H10.5685ZM10.5685 17.8959V19.4875H29.4307V17.8959H10.5685ZM10.5685 22.4972V24.0889H29.4307V22.4972H10.5685ZM10.5685 27.0986V28.691H29.4307V27.0986H10.5685ZM10.5685 31.7V33.2916H29.4307V31.7H10.5685ZM10.5685 36.3013V37.893H29.4307V36.3013H10.5685ZM10.5685 40.9035V42.4951H29.4307V40.9035H10.5685ZM10.5685 45.5041V47.0965H29.4307V45.5041H10.5685ZM29.4601 50.5742H10.5979V49.6901H29.461L29.4601 50.5742ZM4.75152 6.53614H10.5693V10.2848H29.4315V6.53614H35.2502V5.74543H4.75152V6.53614ZM7.66347 2.72784H32.3374V5.12982H7.66347V2.72784Z" fill="white"/>
</g>
<defs>
<clipPath id="clip0_25_99">
<rect width="40" height="58" fill="white"/>
</clipPath>
</defs>
</svg>
