<svg width="40" height="58" viewBox="0 0 40 58" fill="none" xmlns="http://www.w3.org/2000/svg">
<g clip-path="url(#clip0_25_105)">
<path fill-rule="evenodd" clip-rule="evenodd" d="M20.1266 31.4666C20.0975 31.4694 20.0692 31.4694 20.0409 31.4694C18.9859 31.4781 18.4615 31.4569 17.8884 31.1602C17.335 30.8722 17.0662 30.2056 16.3044 29.3059C15.6558 28.5419 14.4931 27.7617 14.2093 26.9284C13.865 25.915 13.9468 24.811 13.7998 23.3362C13.1984 23.7418 12.5553 21.6331 12.4272 20.9414C12.2393 19.9213 11.6395 18.1854 11.4516 17.0207C11.4217 16.8396 11.406 16.6672 11.4005 16.5112C13.9098 18.037 18.4584 18.142 20.0063 18.1401C21.544 18.1382 26.0744 18.0245 28.5877 16.5112C28.583 16.6682 28.5665 16.8396 28.5374 17.0207C28.3503 18.1854 27.7505 19.9222 27.5618 20.9414C27.4352 21.6254 26.8048 23.6936 26.2097 23.3487C26.0776 24.7783 26.1491 25.8553 25.815 26.8523C25.5328 27.6894 24.378 28.4784 23.7341 29.2509C22.9755 30.1613 22.7082 30.8288 22.1579 31.1275C21.6076 31.4213 21.1022 31.4617 20.1266 31.4666ZM26.0619 34.3343C31.7157 39.042 39.2524 36.9603 39.9678 46.3536C39.9827 46.5453 39.9929 55.1679 39.9992 58.001H21.7468L26.0619 34.3343ZM11.869 12.6194C11.2118 12.6194 10.6741 12.9373 10.6741 13.8389C10.6741 17.9879 29.3338 17.9484 29.3338 13.8389C29.3338 12.9373 28.796 12.6194 28.1388 12.6194H11.869ZM20.0039 0C24.7718 0 28.6569 5.67679 28.8298 11.5154C28.6137 11.449 28.3817 11.4152 28.1396 11.4152H11.869C11.6269 11.4152 11.395 11.449 11.1788 11.5154C11.351 5.67679 15.236 0 20.0039 0ZM22.5958 1.26772C20.9088 0.790878 19.0991 0.790878 17.4128 1.26772L19.3538 8.39333H20.6548L22.5958 1.26772ZM20.1486 35.4383L19.8538 35.4277L18.276 38.2868L18.3153 39.0141L19.6211 40.6392L18.1573 43.5243L18.7084 58H21.36L21.8506 43.5368L20.3868 40.6517L21.6925 39.0266L21.7318 38.2993L20.1486 35.4383ZM13.9373 34.3343L18.2524 58H0C0.00628906 55.1679 0.0165088 46.5443 0.0314453 46.3526C0.746826 36.9594 8.28348 39.0411 13.9373 34.3343Z" fill="white"/>
</g>
<defs>
<clipPath id="clip0_25_105">
<rect width="40" height="58" fill="white"/>
</clipPath>
</defs>
</svg>
