<svg width="40" height="54" viewBox="0 0 40 54" fill="none" xmlns="http://www.w3.org/2000/svg">
<g clip-path="url(#clip0_25_108)">
<path fill-rule="evenodd" clip-rule="evenodd" d="M7.28832 32.9497H19.1885C19.4793 32.9497 19.7172 33.3362 19.7172 33.8086V42.1586C19.7172 42.631 19.4793 43.0175 19.1885 43.0175H7.28832C6.99755 43.0175 6.75964 42.631 6.75964 42.1586V33.8086C6.75964 33.3352 6.99755 32.9497 7.28832 32.9497Z" fill="white"/>
<path fill-rule="evenodd" clip-rule="evenodd" d="M20.8096 32.9497H32.7097C33.0005 32.9497 33.2384 33.3362 33.2384 33.8086V42.1586C33.2384 42.631 33.0005 43.0175 32.7097 43.0175H20.8096C20.5188 43.0175 20.2809 42.631 20.2809 42.1586V33.8086C20.2809 33.3352 20.5188 32.9497 20.8096 32.9497Z" fill="white"/>
<path fill-rule="evenodd" clip-rule="evenodd" d="M0.528678 0H12.4288C12.7196 0 12.9575 0.386492 12.9575 0.858871V9.20889C12.9575 9.68127 12.7196 10.0678 12.4288 10.0678H0.528678C0.237905 10.0678 0 9.68127 0 9.20889V0.858871C0 0.386492 0.237905 0 0.528678 0Z" fill="white"/>
<path fill-rule="evenodd" clip-rule="evenodd" d="M0.528678 21.9661H12.4288C12.7196 21.9661 12.9575 22.3526 12.9575 22.8249V31.174C12.9575 31.6473 12.7196 32.0328 12.4288 32.0328H0.528678C0.237905 32.0328 0 31.6463 0 31.174V22.8249C0 22.3526 0.237905 21.9661 0.528678 21.9661Z" fill="white"/>
<path fill-rule="evenodd" clip-rule="evenodd" d="M0.528678 43.9321H12.4288C12.7196 43.9321 12.9575 44.3186 12.9575 44.791V53.14C12.9575 53.6134 12.7196 53.9989 12.4288 53.9989H0.528678C0.237905 53.9989 0 53.6124 0 53.14V44.791C0 44.3176 0.237905 43.9321 0.528678 43.9321Z" fill="white"/>
<path fill-rule="evenodd" clip-rule="evenodd" d="M14.0499 0H25.9501C26.2409 0 26.4788 0.386492 26.4788 0.858871V9.20889C26.4788 9.68127 26.2409 10.0678 25.9501 10.0678H14.0499C13.7585 10.0678 13.5212 9.68127 13.5212 9.20889V0.858871C13.5212 0.386492 13.7585 0 14.0499 0Z" fill="white"/>
<path fill-rule="evenodd" clip-rule="evenodd" d="M14.0499 21.9661H25.9501C26.2409 21.9661 26.4788 22.3526 26.4788 22.8249V31.174C26.4788 31.6473 26.2409 32.0328 25.9501 32.0328H14.0499C13.7585 32.0328 13.5212 31.6463 13.5212 31.174V22.8249C13.5212 22.3526 13.7585 21.9661 14.0499 21.9661Z" fill="white"/>
<path fill-rule="evenodd" clip-rule="evenodd" d="M14.0499 43.9321H25.9501C26.2409 43.9321 26.4788 44.3186 26.4788 44.791V53.14C26.4788 53.6134 26.2409 53.9989 25.9501 53.9989H14.0499C13.7585 53.9989 13.5212 53.6124 13.5212 53.14V44.791C13.5212 44.3176 13.7585 43.9321 14.0499 43.9321Z" fill="white"/>
<path fill-rule="evenodd" clip-rule="evenodd" d="M27.5712 0H39.4713C39.7621 0 40 0.386492 40 0.858871V9.20889C40 9.68127 39.7621 10.0678 39.4713 10.0678H27.5712C27.2804 10.0678 27.0425 9.68127 27.0425 9.20889V0.858871C27.0425 0.386492 27.2804 0 27.5712 0Z" fill="white"/>
<path fill-rule="evenodd" clip-rule="evenodd" d="M27.5712 21.9661H39.4713C39.7621 21.9661 40 22.3526 40 22.8249V31.174C40 31.6473 39.7621 32.0328 39.4713 32.0328H27.5712C27.2804 32.0328 27.0425 31.6463 27.0425 31.174V22.8249C27.0425 22.3526 27.2804 21.9661 27.5712 21.9661Z" fill="white"/>
<path fill-rule="evenodd" clip-rule="evenodd" d="M27.5712 43.9321H39.4713C39.7621 43.9321 40 44.3186 40 44.791V53.14C40 53.6134 39.7621 53.9989 39.4713 53.9989H27.5712C27.2804 53.9989 27.0425 53.6124 27.0425 53.14V44.791C27.0425 44.3176 27.2804 43.9321 27.5712 43.9321Z" fill="white"/>
<path fill-rule="evenodd" clip-rule="evenodd" d="M7.28893 10.9827H19.1891C19.4805 10.9827 19.7178 11.3692 19.7178 11.8415V20.1916C19.7178 20.6639 19.4799 21.0504 19.1891 21.0504H7.28893C6.99816 21.0504 6.76025 20.6639 6.76025 20.1916V11.8415C6.76025 11.3692 6.99816 10.9827 7.28893 10.9827Z" fill="white"/>
<path fill-rule="evenodd" clip-rule="evenodd" d="M20.8108 10.9827H32.7103C33.0011 10.9827 33.239 11.3692 33.239 11.8415V20.1916C33.239 20.6639 33.0011 21.0504 32.7103 21.0504H20.8108C20.52 21.0504 20.2821 20.6639 20.2821 20.1916V11.8415C20.2815 11.3692 20.5194 10.9827 20.8108 10.9827Z" fill="white"/>
</g>
<defs>
<clipPath id="clip0_25_108">
<rect width="40" height="54" fill="white"/>
</clipPath>
</defs>
</svg>
