<svg width="40" height="58" viewBox="0 0 40 58" fill="none" xmlns="http://www.w3.org/2000/svg">
<g clip-path="url(#clip0_25_26)">
<path fill-rule="evenodd" clip-rule="evenodd" d="M4.98239 0H35.0168C37.7616 0 39.9992 2.23702 39.9992 4.98113V36.2483C39.9992 38.9924 37.7607 41.2295 35.0168 41.2295H4.98239C2.23759 41.2295 0 38.9924 0 36.2483V4.98113C0 2.23702 2.23759 0 4.98239 0ZM7.72887 58V46.7311H32.2703V58H7.72887ZM12.6643 57.4435L8.59406 51.7692V55.8225L9.75687 57.4435H12.6643ZM18.8808 57.4435L11.5954 47.2868H8.68796L15.9733 57.4435H18.8808ZM25.0964 57.4435L17.811 47.2868H14.9027L22.189 57.4435H25.0964ZM31.3129 57.4435L24.0275 47.2868H21.1201L28.4046 57.4435H31.3129ZM31.4059 48.9086L30.2431 47.2868H27.3348L31.4051 52.961L31.4059 48.9086ZM18.0617 42.1305H21.9383V45.4755H18.0617V42.1305ZM10.5642 29.3545H18.2721V29.8097H18.9294V11.4382V10.9362H19.4316H20.4351V11.4382H19.4316V29.8097H19.6806V34.1421H22.3633V33.6207H27.5184V34.1421H30.83V11.4382H23.6871V10.9362H30.83V10.5733H32.1127V35.9759H30.83V35.9525H27.2803V35.9759H22.6031V35.9525H19.6814H18.9135H17.8706H9.38129H9.02163L9.02247 35.9499L6.63732 33.7029H6.63145V31.6402V29.8298V28.824V4.6752H7.76073V4.64H34.0728V5.92237H32.1143V6.93737H30.8317V5.92237H15.4041V7.01197H14.9019V5.92237H8.44232V15.1454H14.9019V9.55575H15.4041V15.1454H15.5298V15.6474H15.4041H14.9019H8.44232V24.7053H10.8082V25.9005V27.0672H10.7956H9.77699H9.55315H9.55064H9.51543H8.44232V27.0798V27.0815V29.8314H10.5642V29.3545ZM17.8697 30.0485H11.2299V30.4123H17.8697V30.0485ZM11.2307 30.7836V31.2404H17.8706V30.7836H11.2307ZM17.8697 31.7106H10.9222V31.641H8.44232H7.13363V33.4288L9.25805 35.4512H9.31841H17.8697V34.1421V31.7106ZM10.8291 21.2404H10.3999C10.394 21.2739 10.3898 21.3041 10.3873 21.3309C10.3856 21.3586 10.3848 21.3862 10.3848 21.4147C10.3848 21.4458 10.3856 21.4751 10.3873 21.5027C10.3898 21.5304 10.394 21.5606 10.3999 21.5941H11.66C11.6658 21.5606 11.67 21.5304 11.6717 21.5027C11.6742 21.4751 11.675 21.4458 11.675 21.4147C11.675 21.3871 11.6742 21.3594 11.6717 21.3309C11.67 21.3041 11.6658 21.2739 11.66 21.2404H11.2366V19.6605H11.1569L10.3077 20.0326C10.3228 20.0896 10.3437 20.1458 10.3697 20.1986C10.3949 20.2497 10.4259 20.3 10.4636 20.3495L10.8283 20.2045L10.8291 21.2404ZM12.7247 21.6301C12.8571 21.6301 12.972 21.6058 13.0709 21.5564C13.1699 21.5069 13.2503 21.4374 13.3132 21.3494C13.3761 21.2605 13.4239 21.1558 13.4557 21.0342C13.4868 20.9127 13.5027 20.7803 13.5027 20.6369C13.5027 20.4928 13.4884 20.3595 13.4582 20.238C13.4289 20.1156 13.3828 20.0108 13.3191 19.9212C13.2562 19.8332 13.1766 19.7636 13.0801 19.7133C12.9837 19.6622 12.8689 19.6379 12.7373 19.6379C12.6031 19.6379 12.4874 19.6622 12.3893 19.7133C12.2921 19.7636 12.2116 19.8332 12.1487 19.9212C12.0858 20.01 12.0381 20.1156 12.0062 20.238C11.9752 20.3603 11.9593 20.4936 11.9593 20.6369C11.9593 20.7803 11.9752 20.9127 12.0045 21.0342C12.0355 21.1566 12.0817 21.2614 12.1437 21.3494C12.2057 21.4374 12.2854 21.5069 12.3818 21.5564C12.4782 21.605 12.5931 21.6301 12.7247 21.6301ZM12.7314 21.2756C12.8312 21.2756 12.91 21.2236 12.9661 21.1197C13.0223 21.0166 13.0508 20.8557 13.0508 20.6369C13.0508 20.4173 13.0231 20.2564 12.9661 20.1533C12.91 20.0494 12.8312 19.9974 12.7314 19.9974C12.6283 19.9974 12.5478 20.0494 12.4899 20.1533C12.4321 20.2564 12.4027 20.4173 12.4027 20.6369C12.4027 20.8557 12.4329 21.0166 12.4916 21.1197C12.5503 21.2236 12.6299 21.2756 12.7314 21.2756ZM13.9051 21.1692L13.7106 21.9252C13.7433 21.9336 13.776 21.9386 13.8062 21.9403C13.8364 21.9419 13.8674 21.9428 13.8992 21.9428C13.9302 21.9428 13.9629 21.9419 13.9965 21.9403C14.0292 21.9377 14.0635 21.9327 14.0962 21.9252L14.3125 21.1692C14.279 21.1608 14.2438 21.1558 14.2061 21.1532C14.1683 21.1499 14.134 21.1482 14.103 21.1482C14.0711 21.1482 14.0392 21.1499 14.0057 21.1532C13.9722 21.1558 13.9386 21.1608 13.9051 21.1692ZM14.839 19.6672L14.7946 20.797L14.839 20.8322C14.8944 20.8046 14.9497 20.7853 15.0034 20.7744C15.057 20.7635 15.1132 20.7585 15.1702 20.7585C15.3161 20.7585 15.4217 20.7853 15.4862 20.8414C15.5516 20.8959 15.5843 20.9739 15.5843 21.0745C15.5843 21.1206 15.576 21.1641 15.5609 21.206C15.5441 21.2488 15.5181 21.2857 15.4804 21.3184C15.4427 21.351 15.3949 21.377 15.3353 21.3971C15.2767 21.4164 15.2029 21.4265 15.1132 21.4265C15.0444 21.4265 14.979 21.4198 14.9187 21.4064C14.8575 21.3921 14.7929 21.3737 14.7233 21.3502C14.7007 21.4072 14.6781 21.4659 14.6588 21.5245C14.6395 21.584 14.6261 21.6436 14.6202 21.7056C14.6655 21.7207 14.7124 21.7349 14.7619 21.7466C14.8114 21.7592 14.8583 21.7676 14.9027 21.7751C14.9472 21.7819 14.9891 21.7869 15.0277 21.7902C15.0662 21.7927 15.0981 21.7944 15.1232 21.7944C15.2616 21.7944 15.3865 21.7793 15.4971 21.7466C15.6087 21.7156 15.7034 21.6679 15.7814 21.605C15.8593 21.5421 15.9188 21.4642 15.9616 21.372C16.0044 21.279 16.0253 21.1717 16.0253 21.0485C16.0253 20.9487 16.0086 20.859 15.9775 20.7828C15.9457 20.7065 15.9021 20.642 15.8459 20.59C15.7906 20.5372 15.7227 20.4986 15.6439 20.471C15.5651 20.445 15.477 20.4316 15.3806 20.4316C15.3513 20.4316 15.3228 20.4324 15.2951 20.4358C15.2674 20.4391 15.2356 20.4442 15.2004 20.4525L15.218 20.0293H15.8979C15.9105 19.9706 15.9155 19.9086 15.9155 19.8457C15.9155 19.7871 15.9096 19.7275 15.8979 19.6689H14.839V19.6672ZM16.717 21.8162C16.9157 21.8078 17.0892 21.7684 17.2359 21.6972C17.3826 21.6268 17.5042 21.5329 17.6014 21.4147C17.6979 21.2974 17.77 21.1608 17.8177 21.004C17.8655 20.8482 17.889 20.6797 17.889 20.5003C17.889 20.2128 17.8236 19.9966 17.6937 19.8533C17.5637 19.7091 17.3751 19.6379 17.1286 19.6379C17.0347 19.6379 16.9408 19.6521 16.8511 19.684C16.7606 19.7141 16.6801 19.7602 16.6113 19.8206C16.5426 19.8818 16.4873 19.9572 16.4445 20.0477C16.4017 20.1382 16.3816 20.2405 16.3816 20.3595C16.3816 20.476 16.3984 20.5774 16.4336 20.6621C16.468 20.7484 16.5141 20.8197 16.5719 20.875C16.6306 20.9311 16.6977 20.9739 16.7748 21.0024C16.8519 21.0309 16.9324 21.0451 17.0171 21.0451C17.0758 21.0451 17.1286 21.0384 17.1747 21.0258C17.22 21.0124 17.2594 20.9965 17.2938 20.9755C17.3281 20.9554 17.3575 20.932 17.3826 20.9077C17.4069 20.8834 17.4287 20.8574 17.4463 20.8322C17.4304 20.9152 17.4036 20.994 17.3659 21.0686C17.3281 21.144 17.2795 21.2102 17.22 21.2681C17.1596 21.3259 17.0867 21.3728 17.0003 21.408C16.9148 21.4441 16.8176 21.4634 16.7086 21.4675C16.691 21.5237 16.6826 21.5765 16.6826 21.6243C16.6826 21.6578 16.6859 21.6905 16.6927 21.7215C16.6994 21.7534 16.7077 21.7844 16.717 21.8162ZM17.1261 20.714C17.2242 20.714 17.303 20.6847 17.3608 20.6269C17.4187 20.569 17.448 20.481 17.448 20.3645C17.448 20.2405 17.4204 20.1449 17.3642 20.0796C17.308 20.0134 17.2326 19.9798 17.137 19.9798C17.0473 19.9798 16.971 20.0108 16.9098 20.072C16.8486 20.1324 16.8184 20.2254 16.8184 20.3495C16.8184 20.4794 16.8478 20.5732 16.9064 20.6294C16.9634 20.6856 17.0364 20.714 17.1261 20.714ZM9.59172 9.12494L9.61184 9.15679H10.3907V9.48116C10.4183 9.48451 10.446 9.48702 10.4737 9.48954C10.5013 9.49205 10.529 9.49289 10.5575 9.49289C10.5835 9.49289 10.6087 9.49205 10.6338 9.48954C10.659 9.48702 10.6841 9.48451 10.7109 9.48116V9.15679H10.8769C10.882 9.13584 10.8853 9.11237 10.8878 9.08806C10.8903 9.06292 10.8912 9.03861 10.8912 9.01598C10.8912 8.96737 10.8861 8.92211 10.8769 8.87685H10.7109V8.50723C10.6833 8.50387 10.6556 8.50136 10.6271 8.49884C10.5994 8.49633 10.5718 8.49549 10.5433 8.49549C10.5173 8.49549 10.4913 8.49633 10.467 8.49884C10.4427 8.50136 10.4175 8.50387 10.3907 8.50723V8.87685H10.0587L10.5357 7.90963C10.4921 7.8761 10.4468 7.85095 10.3974 7.83419C10.3488 7.81743 10.2985 7.80737 10.2456 7.80067L9.59172 9.12494ZM11.1754 9.01095L11.0228 9.60353C11.0488 9.61023 11.0739 9.61358 11.0983 9.61526C11.1217 9.61694 11.1469 9.61777 11.1712 9.61777C11.1955 9.61777 11.2207 9.61694 11.2475 9.61526C11.2735 9.61358 11.3003 9.61023 11.3263 9.60353L11.4956 9.01095C11.4688 9.00509 11.4411 9.0009 11.4118 8.99838C11.3825 8.99587 11.3556 8.99419 11.3305 8.99419C11.3053 8.99419 11.2793 8.99587 11.2534 8.99838C11.2282 9.0009 11.2014 9.00509 11.1754 9.01095ZM12.22 9.06627H11.8838C11.8796 9.09225 11.8763 9.11572 11.8746 9.13835C11.8729 9.15931 11.8721 9.18194 11.8721 9.20289C11.8721 9.2272 11.8729 9.25066 11.8746 9.27246C11.8763 9.29341 11.8796 9.31772 11.8838 9.3437H12.8706C12.8756 9.31772 12.8789 9.29341 12.8798 9.27246C12.8815 9.25066 12.8823 9.2272 12.8823 9.20289C12.8823 9.18194 12.8815 9.15931 12.8798 9.13835C12.8789 9.11656 12.8756 9.09225 12.8706 9.06627H12.5402V7.83084H12.4774L11.8125 8.12251C11.8251 8.16694 11.841 8.21052 11.8612 8.25159C11.8813 8.29182 11.9064 8.33121 11.9358 8.36977L12.2208 8.25578L12.22 9.06627ZM13.1372 9.30934L13.1531 9.3437H14.2119C14.2212 9.2976 14.2254 9.24899 14.2254 9.19786C14.2254 9.15344 14.2212 9.10818 14.2119 9.06124H13.7181L13.8405 8.8978C13.8867 8.83578 13.9286 8.77795 13.9663 8.72514C14.004 8.67234 14.0367 8.62038 14.0644 8.57092C14.0921 8.5198 14.1147 8.47035 14.1289 8.41838C14.144 8.36809 14.1524 8.31445 14.1524 8.25913C14.1524 8.1837 14.1382 8.11749 14.1105 8.06133C14.0828 8.00601 14.0434 7.95824 13.9931 7.92136C13.9428 7.88448 13.8833 7.85766 13.8137 7.83922C13.7441 7.82078 13.6704 7.81156 13.5882 7.81156C13.5429 7.81156 13.5035 7.81407 13.4683 7.81743C13.4339 7.82162 13.4004 7.82749 13.3677 7.83419C13.3358 7.84173 13.304 7.85095 13.2721 7.86185C13.2403 7.87358 13.2059 7.88616 13.169 7.9004C13.1724 7.9465 13.1816 7.99176 13.1958 8.03702C13.2101 8.08228 13.2277 8.12503 13.247 8.16861C13.2721 8.15772 13.2956 8.1485 13.3182 8.14012C13.34 8.1309 13.3627 8.12419 13.3861 8.11832C13.4088 8.11162 13.4339 8.10743 13.4591 8.10408C13.4842 8.10072 13.5136 8.09905 13.548 8.09905C13.6301 8.09905 13.6938 8.11665 13.7383 8.15185C13.7844 8.18789 13.807 8.23818 13.807 8.30272C13.807 8.34127 13.7995 8.37983 13.7844 8.41754C13.7701 8.45526 13.7483 8.49633 13.7207 8.53991C13.6913 8.5835 13.6569 8.63211 13.615 8.68491C13.5731 8.73772 13.5262 8.79806 13.4733 8.86763L13.1372 9.30934ZM20.8149 7.45451C20.6154 7.46457 20.4427 7.5048 20.2959 7.5752C20.1484 7.64477 20.0277 7.7378 19.9304 7.85598C19.834 7.97332 19.7619 8.10994 19.7141 8.26668C19.6663 8.42257 19.6429 8.59188 19.6429 8.7704C19.6429 9.05789 19.7082 9.27413 19.8382 9.4183C19.9681 9.56246 20.1568 9.6337 20.4033 9.6337C20.4971 9.6337 20.591 9.61861 20.6807 9.58844C20.7713 9.55743 20.8518 9.51133 20.9205 9.45014C20.9893 9.3898 21.0446 9.31436 21.0874 9.22384C21.1301 9.135 21.1511 9.03107 21.1511 8.91205C21.1511 8.79806 21.1335 8.69749 21.0991 8.61116C21.0639 8.52483 21.0178 8.45275 20.9599 8.39659C20.9021 8.34043 20.8342 8.29853 20.757 8.26919C20.6799 8.24153 20.5994 8.22645 20.5148 8.22645C20.4561 8.22645 20.4033 8.23315 20.358 8.24572C20.3119 8.25913 20.2716 8.2759 20.2373 8.29685C20.2029 8.31697 20.1735 8.34043 20.1492 8.36474C20.1249 8.38905 20.1031 8.41419 20.0855 8.44017C20.0998 8.3572 20.1258 8.27925 20.1643 8.20382C20.2029 8.12922 20.2515 8.06217 20.3127 8.00434C20.3722 7.9465 20.4452 7.89957 20.5298 7.86436C20.6145 7.82916 20.7126 7.80905 20.8233 7.80569C20.8409 7.75038 20.8493 7.69757 20.8493 7.64812C20.8493 7.6146 20.8459 7.58191 20.8384 7.5509C20.8333 7.51821 20.8249 7.4872 20.8149 7.45451ZM20.3949 9.2909C20.4854 9.2909 20.5609 9.26072 20.6221 9.20038C20.6833 9.13919 20.7134 9.04616 20.7134 8.92211C20.7134 8.7922 20.6849 8.69832 20.6263 8.64301C20.5692 8.58685 20.4955 8.55835 20.4058 8.55835C20.3077 8.55835 20.2289 8.58685 20.171 8.64468C20.1132 8.70251 20.0847 8.79052 20.0847 8.90702C20.0847 9.03191 20.1123 9.12662 20.1693 9.19283C20.2247 9.25821 20.3001 9.2909 20.3949 9.2909ZM21.5451 9.17272L21.3506 9.92957C21.3841 9.93711 21.416 9.94298 21.4462 9.94465C21.4764 9.94633 21.5074 9.94717 21.5392 9.94717C21.5711 9.94717 21.6038 9.94633 21.6365 9.94465C21.67 9.94298 21.7036 9.93711 21.7371 9.92957L21.9534 9.17272C21.9199 9.16434 21.8838 9.15931 21.8469 9.15679C21.8092 9.15428 21.7748 9.1526 21.743 9.1526C21.7119 9.1526 21.6792 9.15428 21.6457 9.15679C21.6122 9.16014 21.5786 9.16434 21.5451 9.17272ZM23.4499 7.45451C23.2512 7.46457 23.0785 7.5048 22.9318 7.5752C22.7842 7.64477 22.6626 7.7378 22.5654 7.85598C22.469 7.97332 22.3977 8.10994 22.3499 8.26668C22.3021 8.42257 22.2787 8.59188 22.2787 8.7704C22.2787 9.05789 22.3441 9.27413 22.474 9.4183C22.604 9.56246 22.7926 9.6337 23.0382 9.6337C23.133 9.6337 23.2269 9.61861 23.3166 9.58844C23.4071 9.55743 23.4868 9.51133 23.5555 9.45014C23.6251 9.3898 23.6804 9.31436 23.7232 9.22384C23.7651 9.135 23.786 9.03107 23.786 8.91205C23.786 8.79806 23.7701 8.69749 23.7349 8.61116C23.7005 8.52483 23.6536 8.45275 23.5966 8.39659C23.5379 8.34043 23.4708 8.29853 23.3937 8.26919C23.3166 8.24153 23.2352 8.22645 23.1514 8.22645C23.0927 8.22645 23.0399 8.23315 22.9938 8.24572C22.9485 8.25913 22.9083 8.2759 22.8739 8.29685C22.8395 8.31697 22.8102 8.34043 22.7859 8.36474C22.7616 8.38905 22.7398 8.41419 22.7222 8.44017C22.7364 8.3572 22.7624 8.27925 22.801 8.20382C22.8387 8.12922 22.8882 8.06217 22.9485 8.00434C23.0089 7.9465 23.081 7.89957 23.1665 7.86436C23.2512 7.82916 23.3493 7.80905 23.4599 7.80569C23.4767 7.75038 23.4859 7.69757 23.4859 7.64812C23.4859 7.6146 23.4826 7.58191 23.475 7.5509C23.4683 7.51821 23.4591 7.4872 23.4499 7.45451ZM23.0307 9.2909C23.1204 9.2909 23.1967 9.26072 23.2587 9.20038C23.3191 9.13919 23.3501 9.04616 23.3501 8.92211C23.3501 8.7922 23.3208 8.69832 23.2629 8.64301C23.2051 8.58685 23.1313 8.55835 23.0424 8.55835C22.9443 8.55835 22.8655 8.58685 22.8077 8.64468C22.7498 8.70251 22.7205 8.79052 22.7205 8.90702C22.7205 9.03191 22.749 9.12662 22.8052 9.19283C22.8605 9.25821 22.9351 9.2909 23.0307 9.2909ZM23.9328 9.31772L23.9587 9.35962H24.9522V9.77283C24.9874 9.77702 25.0226 9.78038 25.0587 9.78373C25.0939 9.78708 25.1299 9.78792 25.1652 9.78792C25.1987 9.78792 25.2305 9.78708 25.2624 9.78373C25.2943 9.78038 25.3261 9.77702 25.3597 9.77283V9.35962H25.5726C25.5793 9.33197 25.5835 9.30263 25.5869 9.27078C25.5894 9.23977 25.591 9.20876 25.591 9.17942C25.591 9.11907 25.5852 9.05873 25.5734 9.00257H25.3605V8.52986C25.3253 8.52567 25.2901 8.52231 25.254 8.51896C25.2188 8.51561 25.1836 8.51393 25.1476 8.51393C25.114 8.51393 25.0822 8.51561 25.0503 8.51896C25.0184 8.52231 24.9866 8.52567 24.9531 8.52986V9.00257H24.5297L25.1383 7.76546C25.0838 7.72272 25.0243 7.69003 24.9623 7.66991C24.9002 7.6498 24.8365 7.63555 24.7694 7.62717L23.9328 9.31772ZM22.2393 22.3166H21.81C21.8042 22.3501 21.8 22.3803 21.7975 22.4079C21.7958 22.4356 21.7949 22.4633 21.7949 22.4909C21.7949 22.5228 21.7958 22.5521 21.7975 22.5798C21.8 22.6066 21.8042 22.6376 21.81 22.6711H23.0701C23.076 22.6376 23.0801 22.6066 23.0818 22.5798C23.0843 22.5521 23.0852 22.5228 23.0852 22.4909C23.0852 22.4641 23.0843 22.4356 23.0818 22.4079C23.0801 22.3803 23.076 22.3501 23.0701 22.3166H22.6467V20.7375H22.5662L21.7178 21.1097C21.7337 21.1666 21.7539 21.2228 21.7798 21.2756C21.805 21.3267 21.836 21.377 21.8737 21.4265L22.2376 21.2815V22.3166H22.2393ZM24.3385 21.1046L23.6611 22.7223C23.7223 22.7684 23.7844 22.8036 23.8498 22.8287C23.9135 22.8547 23.9805 22.8756 24.0518 22.8907L24.9212 20.7803L24.9036 20.7451H23.449C23.4373 20.8037 23.4314 20.8649 23.4314 20.9286C23.4314 20.9873 23.4373 21.0468 23.449 21.1055L24.3385 21.1046ZM25.3152 22.2462L25.1199 23.0022C25.1534 23.0106 25.1861 23.0156 25.2163 23.0173C25.2465 23.0198 25.2775 23.0206 25.3085 23.0206C25.3404 23.0206 25.3731 23.0198 25.4066 23.0173C25.4401 23.0156 25.4728 23.0106 25.5064 23.0022L25.7227 22.2462C25.6891 22.2378 25.6539 22.2328 25.6162 22.2294C25.5793 22.2261 25.5441 22.2244 25.5131 22.2244C25.4812 22.2244 25.4485 22.2261 25.4158 22.2294C25.3823 22.2328 25.3488 22.2378 25.3152 22.2462ZM26.3531 22.8932C26.5518 22.8849 26.7245 22.8455 26.8712 22.7742C27.0188 22.7038 27.1403 22.6099 27.2376 22.4918C27.334 22.3744 27.4053 22.2378 27.453 22.0811C27.5008 21.9252 27.5243 21.7559 27.5243 21.5765C27.5243 21.289 27.4598 21.0728 27.329 20.9295C27.1999 20.7853 27.0112 20.714 26.7648 20.714C26.67 20.714 26.577 20.7291 26.4864 20.7593C26.3959 20.7903 26.3162 20.8364 26.2475 20.8968C26.1779 20.9579 26.1226 21.0334 26.0798 21.1239C26.0379 21.2127 26.0169 21.3167 26.0169 21.4357C26.0169 21.5522 26.0345 21.6528 26.0689 21.7383C26.1033 21.8238 26.1502 21.8958 26.2081 21.9512C26.2659 22.0073 26.333 22.0501 26.4101 22.0786C26.4873 22.1062 26.5677 22.1213 26.6524 22.1213C26.7119 22.1213 26.7639 22.1146 26.81 22.1029C26.8553 22.0895 26.8955 22.0727 26.9299 22.0517C26.9651 22.0316 26.9936 22.0082 27.0188 21.9838C27.0431 21.9595 27.0641 21.9336 27.0817 21.9084C27.0657 21.9914 27.0389 22.0693 27.002 22.1448C26.9643 22.2194 26.9148 22.2864 26.8553 22.3442C26.7958 22.4021 26.722 22.449 26.6365 22.4842C26.5501 22.5194 26.4529 22.5395 26.3447 22.5429C26.3271 22.5999 26.3179 22.6527 26.3179 22.7005C26.3179 22.734 26.3213 22.7667 26.3288 22.7977C26.3347 22.8304 26.3431 22.8614 26.3531 22.8932ZM26.7614 21.7902C26.8595 21.7902 26.9383 21.7617 26.9961 21.7039C27.054 21.6461 27.0833 21.5581 27.0833 21.4416C27.0833 21.3175 27.0548 21.222 26.9995 21.1558C26.9433 21.0904 26.8679 21.0569 26.7731 21.0569C26.6826 21.0569 26.6063 21.0879 26.5451 21.1482C26.4839 21.2094 26.4546 21.3024 26.4546 21.4265C26.4546 21.5564 26.4831 21.6503 26.5409 21.7056C26.5996 21.7626 26.6725 21.7902 26.7614 21.7902ZM28.7492 21.1046L28.0718 22.7223C28.1321 22.7684 28.1942 22.8036 28.2596 22.8287C28.3233 22.8547 28.3912 22.8756 28.4616 22.8907L29.331 20.7803L29.3134 20.7451H27.8588C27.8462 20.8037 27.8412 20.8649 27.8412 20.9286C27.8412 20.9873 27.8471 21.0468 27.8588 21.1055L28.7492 21.1046ZM22.6945 34.3139V34.6776H27.173V34.3139H22.6945ZM22.6945 35.0489V35.5057H27.173V35.0489H22.6945ZM9.917 34.5938L9.93712 34.6382H11.2886C11.3011 34.5796 11.3062 34.5167 11.3062 34.4522C11.3062 34.3952 11.3003 34.3365 11.2886 34.2778H10.659L10.8157 34.0675C10.8744 33.9887 10.9289 33.9149 10.9767 33.847C11.0253 33.7791 11.0664 33.7138 11.1024 33.6492C11.1377 33.5855 11.1645 33.521 11.1854 33.4564C11.2047 33.3911 11.2148 33.3232 11.2148 33.2519C11.2148 33.1556 11.1963 33.0709 11.1611 32.9988C11.1251 32.9267 11.0765 32.8681 11.0111 32.8203C10.9474 32.7725 10.8711 32.7373 10.7822 32.7155C10.6933 32.6929 10.5969 32.6812 10.4921 32.6812C10.4359 32.6812 10.3848 32.6837 10.3395 32.6887C10.2951 32.6937 10.2523 32.7004 10.2113 32.7088C10.1702 32.718 10.1291 32.7298 10.0889 32.7449C10.0486 32.7599 10.0042 32.7759 9.95808 32.7935C9.96144 32.853 9.97317 32.9108 9.99162 32.9678C10.0109 33.0248 10.0327 33.0818 10.0578 33.1363C10.0897 33.1229 10.1199 33.1111 10.1476 33.0994C10.1761 33.0885 10.2054 33.0801 10.2347 33.0717C10.2641 33.0634 10.2951 33.0575 10.3278 33.0541C10.3605 33.0499 10.3982 33.0483 10.4418 33.0483C10.5466 33.0483 10.6279 33.0709 10.6858 33.1162C10.7436 33.1614 10.7721 33.226 10.7721 33.3081C10.7721 33.3575 10.7629 33.4062 10.7445 33.4548C10.726 33.5034 10.6984 33.5545 10.6615 33.6115C10.6246 33.6677 10.5801 33.7297 10.5273 33.7967C10.4745 33.8638 10.4133 33.9417 10.3462 34.0297L9.917 34.5938ZM11.8218 34.2125L11.6264 34.9693C11.66 34.9777 11.6918 34.9827 11.722 34.9844C11.753 34.9861 11.784 34.9877 11.8151 34.9877C11.8461 34.9877 11.8788 34.9861 11.9131 34.9844C11.9458 34.9827 11.9794 34.9777 12.0129 34.9693L12.2292 34.2125C12.1957 34.2049 12.1605 34.199 12.1227 34.1957C12.085 34.1932 12.0506 34.1915 12.0196 34.1915C11.9878 34.1915 11.9551 34.1932 11.9215 34.1957C11.8888 34.1999 11.8553 34.2058 11.8218 34.2125ZM12.8597 34.8603C13.0583 34.8528 13.2319 34.8134 13.3786 34.7422C13.5262 34.6709 13.6469 34.5771 13.745 34.4597C13.8405 34.3424 13.9126 34.2049 13.9604 34.049C14.0082 33.8914 14.0317 33.7238 14.0317 33.5445C14.0317 33.2561 13.9663 33.0399 13.8364 32.8974C13.7064 32.7532 13.5178 32.6812 13.2721 32.6812C13.1774 32.6812 13.0835 32.6971 12.9938 32.7273C12.9033 32.7574 12.8236 32.8035 12.754 32.8647C12.6853 32.9259 12.6299 33.0013 12.5872 33.091C12.5444 33.1807 12.5235 33.2846 12.5235 33.4036C12.5235 33.5201 12.5419 33.6207 12.5763 33.7062C12.6107 33.7917 12.6576 33.8621 12.7146 33.9191C12.7733 33.9744 12.8404 34.0172 12.9175 34.0457C12.9946 34.0742 13.0751 34.0893 13.1598 34.0893C13.2185 34.0893 13.2713 34.0825 13.3174 34.07C13.3627 34.0566 13.4029 34.0406 13.4373 34.0197C13.4717 33.9987 13.501 33.9761 13.5253 33.9518C13.5496 33.9275 13.5714 33.9015 13.589 33.8755C13.5731 33.9585 13.5463 34.0373 13.5086 34.1119C13.4717 34.1873 13.423 34.2535 13.3627 34.3114C13.3023 34.3692 13.2294 34.417 13.143 34.4522C13.0575 34.4874 12.9603 34.5066 12.8513 34.5108C12.8337 34.5678 12.8253 34.6206 12.8253 34.6684C12.8253 34.7019 12.8286 34.7338 12.8362 34.7656C12.8412 34.7975 12.8504 34.8293 12.8597 34.8603ZM13.2679 33.7573C13.366 33.7573 13.4448 33.728 13.5027 33.6702C13.5605 33.6115 13.5899 33.5243 13.5899 33.4078C13.5899 33.2838 13.5614 33.1882 13.5052 33.122C13.4499 33.0566 13.3744 33.0231 13.2788 33.0231C13.1891 33.0231 13.1128 33.0533 13.0516 33.1145C12.9913 33.1757 12.9603 33.2687 12.9603 33.3927C12.9603 33.5227 12.9896 33.6165 13.0483 33.6719C13.1061 33.7297 13.1799 33.7573 13.2679 33.7573ZM14.6345 34.8603C14.8332 34.8528 15.0059 34.8134 15.1534 34.7422C15.3001 34.6709 15.4217 34.5771 15.5189 34.4597C15.6154 34.3424 15.6875 34.2049 15.7352 34.049C15.7822 33.8914 15.8057 33.7238 15.8057 33.5445C15.8057 33.2561 15.7411 33.0399 15.6112 32.8974C15.4812 32.7532 15.2926 32.6812 15.0461 32.6812C14.9514 32.6812 14.8583 32.6971 14.7686 32.7273C14.6781 32.7574 14.5976 32.8035 14.5288 32.8647C14.4601 32.9259 14.4039 33.0013 14.3612 33.091C14.3192 33.1807 14.2983 33.2846 14.2983 33.4036C14.2983 33.5201 14.3159 33.6207 14.3503 33.7062C14.3846 33.7917 14.4316 33.8621 14.4894 33.9191C14.5473 33.9744 14.6152 34.0172 14.6923 34.0457C14.7694 34.0742 14.8499 34.0893 14.9346 34.0893C14.9933 34.0893 15.0461 34.0825 15.0914 34.07C15.1367 34.0566 15.1769 34.0406 15.2113 34.0197C15.2465 33.9987 15.2758 33.9761 15.3001 33.9518C15.3244 33.9275 15.3462 33.9015 15.3638 33.8755C15.3479 33.9585 15.3211 34.0373 15.2834 34.1119C15.2456 34.1873 15.1962 34.2535 15.1367 34.3114C15.0771 34.3692 15.0042 34.417 14.9178 34.4522C14.8315 34.4874 14.7342 34.5066 14.6261 34.5108C14.6085 34.5678 14.5993 34.6206 14.5993 34.6684C14.5993 34.7019 14.6035 34.7338 14.6102 34.7656C14.616 34.7975 14.6244 34.8293 14.6345 34.8603ZM15.0419 33.7573C15.1408 33.7573 15.2188 33.728 15.2767 33.6702C15.3353 33.6115 15.3638 33.5243 15.3638 33.4078C15.3638 33.2838 15.3362 33.1882 15.2792 33.122C15.2238 33.0566 15.1476 33.0231 15.0537 33.0231C14.9631 33.0231 14.8868 33.0533 14.8256 33.1145C14.7644 33.1757 14.7342 33.2687 14.7342 33.3927C14.7342 33.5227 14.7627 33.6165 14.8214 33.6719C14.8801 33.7297 14.9539 33.7573 15.0419 33.7573ZM4.98239 2.43818H35.0168C36.416 2.43818 37.5604 3.58309 37.5604 4.98113V36.2483C37.5604 37.6472 36.4152 38.7913 35.0168 38.7913H4.98239C3.584 38.7913 2.4388 37.6472 2.4388 36.2483V4.98113C2.4388 3.58225 3.58317 2.43818 4.98239 2.43818Z" fill="#4F1724"/>
</g>
<defs>
<clipPath id="clip0_25_26">
<rect width="40" height="58" fill="white"/>
</clipPath>
</defs>
</svg>
