<svg width="38" height="40" viewBox="0 0 38 40" fill="none" xmlns="http://www.w3.org/2000/svg">
<path d="M17.4285 7.21097V22.8437C17.4285 24.3832 17.1286 25.8525 16.5289 27.2515C15.9292 28.6504 15.1185 29.8606 14.0967 30.8821C13.075 31.9035 11.8645 32.714 10.4651 33.3136C9.06581 33.9131 7.59615 34.2129 6.05615 34.2129H4.63461C4.24961 34.2129 3.91644 34.0723 3.63509 33.791C3.35375 33.5097 3.21307 33.1766 3.21307 32.7917V29.9494C3.21307 29.5645 3.35375 29.2315 3.63509 28.9502C3.91644 28.6689 4.24961 28.5283 4.63461 28.5283H6.05615C7.62576 28.5283 8.96586 27.9731 10.0764 26.8629C11.187 25.7526 11.7423 24.4129 11.7423 22.8437V22.1331C11.7423 21.5409 11.535 21.0376 11.1204 20.6231C10.7058 20.2086 10.2023 20.0014 9.60999 20.0014H4.63461C3.45 20.0014 2.44307 19.5868 1.61384 18.7578C0.784611 17.9288 0.369995 16.9222 0.369995 15.7379V7.21097C0.369995 6.02667 0.784611 5.02002 1.61384 4.19102C2.44307 3.36201 3.45 2.9475 4.63461 2.9475H13.1638C14.3485 2.9475 15.3554 3.36201 16.1846 4.19102C17.0138 5.02002 17.4285 6.02667 17.4285 7.21097ZM37.33 7.21097V22.8437C37.33 24.3832 37.0301 25.8525 36.4304 27.2515C35.8307 28.6504 35.02 29.8606 33.9983 30.8821C32.9765 31.9035 31.766 32.714 30.3667 33.3136C28.9674 33.9131 27.4977 34.2129 25.9577 34.2129H24.5361C24.1511 34.2129 23.818 34.0723 23.5366 33.791C23.2553 33.5097 23.1146 33.1766 23.1146 32.7917V29.9494C23.1146 29.5645 23.2553 29.2315 23.5366 28.9502C23.818 28.6689 24.1511 28.5283 24.5361 28.5283H25.9577C27.5273 28.5283 28.8674 27.9731 29.978 26.8629C31.0886 25.7526 31.6438 24.4129 31.6438 22.8437V22.1331C31.6438 21.5409 31.4365 21.0376 31.0219 20.6231C30.6073 20.2086 30.1038 20.0014 29.5115 20.0014H24.5361C23.3515 20.0014 22.3446 19.5868 21.5154 18.7578C20.6861 17.9288 20.2715 16.9222 20.2715 15.7379V7.21097C20.2715 6.02667 20.6861 5.02002 21.5154 4.19102C22.3446 3.36201 23.3515 2.9475 24.5361 2.9475H33.0654C34.25 2.9475 35.2569 3.36201 36.0862 4.19102C36.9154 5.02002 37.33 6.02667 37.33 7.21097Z" fill="#EDE8E9"/>
</svg>
