<svg width="44" height="43" viewBox="0 0 44 43" fill="none" xmlns="http://www.w3.org/2000/svg">
<g clip-path="url(#clip0_79_684)">
<path d="M22.1039 0.674438L2.35156 7.62577L5.47256 33.5048L22.1249 42.6571L38.8629 33.3811L41.9829 7.50277L22.1039 0.674438Z" fill="#4F1724"/>
<path d="M40.0113 9.00056L22.0566 2.87756V40.4726L37.1036 32.1449L40.0113 9.00056Z" fill="#FFF6E6"/>
<path d="M4.56738 9.109L7.24272 32.2537L22.0574 40.4707V2.875L4.56738 9.109Z" fill="#FFF6E6"/>
<path d="M26.9988 22.8909L22.0564 25.2022H16.8471L14.3981 31.3269L9.84375 31.4115L22.0564 4.24219L26.9988 22.8909ZM26.5208 21.7272L22.0891 12.9535L18.4537 21.5762H22.0561L26.5208 21.7272Z" fill="#F2F2F2"/>
<path d="M22.0566 4.24219L22.0893 12.9535L26.2143 21.5829H22.0656L22.0566 25.1965L27.793 25.2022L30.4736 31.4122L34.8316 31.4929L22.0566 4.24219Z" fill="#4F1724"/>
</g>
<defs>
<clipPath id="clip0_79_684">
<rect width="42.6667" height="42.6667" fill="white" transform="translate(0.833008 0.333313)"/>
</clipPath>
</defs>
</svg>
