<svg width="32" height="32" viewBox="0 0 32 32" fill="none" xmlns="http://www.w3.org/2000/svg">
<path d="M16 14.6667V14.68M21.3333 14.6667V14.68M10.6667 14.6667V14.68M8 5.33337C6.93913 5.33337 5.92172 5.7548 5.17157 6.50495C4.42143 7.25509 4 8.27251 4 9.33337V20C4 21.0609 4.42143 22.0783 5.17157 22.8285C5.92172 23.5786 6.93913 24 8 24H14.6667L21.3333 28V24H24C25.0609 24 26.0783 23.5786 26.8284 22.8285C27.5786 22.0783 28 21.0609 28 20V9.33337C28 8.27251 27.5786 7.25509 26.8284 6.50495C26.0783 5.7548 25.0609 5.33337 24 5.33337H8Z" stroke="#4F1724" stroke-width="2.5" stroke-linecap="round" stroke-linejoin="round"/>
</svg>
