<svg width="51" height="50" viewBox="0 0 51 50" fill="none" xmlns="http://www.w3.org/2000/svg">
<path d="M25.5 27.0833C28.9518 27.0833 31.75 24.285 31.75 20.8333C31.75 17.3815 28.9518 14.5833 25.5 14.5833C22.0482 14.5833 19.25 17.3815 19.25 20.8333C19.25 24.285 22.0482 27.0833 25.5 27.0833Z" stroke="white" stroke-width="4" stroke-linecap="round" stroke-linejoin="round"/>
<path d="M25.5 4.16663C21.0797 4.16663 16.8405 5.92257 13.7149 9.04818C10.5893 12.1738 8.83334 16.413 8.83334 20.8333C8.83334 24.775 9.67084 27.3541 11.9583 30.2083L25.5 45.8333L39.0417 30.2083C41.3292 27.3541 42.1667 24.775 42.1667 20.8333C42.1667 16.413 40.4107 12.1738 37.2851 9.04818C34.1595 5.92257 29.9203 4.16663 25.5 4.16663Z" stroke="white" stroke-width="4" stroke-linecap="round" stroke-linejoin="round"/>
</svg>
