<svg width="51" height="51" viewBox="0 0 51 51" fill="none" xmlns="http://www.w3.org/2000/svg">
<path d="M25.5 15.0833C26.6506 15.0833 27.5834 14.1506 27.5834 13C27.5834 11.8494 26.6506 10.9166 25.5 10.9166C24.3494 10.9166 23.4167 11.8494 23.4167 13C23.4167 14.1506 24.3494 15.0833 25.5 15.0833Z" fill="white"/>
<path d="M13 35.9166H38V40.0833H13V35.9166ZM21.3333 25.1458L27.15 30.9666L35.3417 22.7687L38 25.5V17.1666H29.6667L32.3958 19.8229L27.1479 25.0708L21.3333 19.25L13 27.5833L15.9458 30.5291L21.3333 25.1458Z" fill="white"/>
<path d="M40.0834 6.75006H33.2125C33.0062 6.4433 32.7836 6.14774 32.5459 5.86464L32.525 5.83964C30.9938 4.0575 28.8405 2.92647 26.5042 2.67714C25.8406 2.55195 25.1594 2.55195 24.4959 2.67714C22.1595 2.92647 20.0062 4.0575 18.475 5.83964L18.4542 5.86464C18.2165 6.14707 17.9939 6.44193 17.7875 6.74798V6.75006H10.9167C9.25959 6.75172 7.67084 7.41073 6.4991 8.58247C5.32735 9.75422 4.66834 11.343 4.66669 13.0001V42.1667C4.66834 43.8238 5.32735 45.4126 6.4991 46.5843C7.67084 47.7561 9.25959 48.4151 10.9167 48.4167H40.0834C41.7404 48.4151 43.3292 47.7561 44.5009 46.5843C45.6727 45.4126 46.3317 43.8238 46.3334 42.1667V13.0001C46.3317 11.343 45.6727 9.75422 44.5009 8.58247C43.3292 7.41073 41.7404 6.75172 40.0834 6.75006ZM42.1667 42.1667C42.1667 42.7193 41.9472 43.2492 41.5565 43.6399C41.1658 44.0306 40.6359 44.2501 40.0834 44.2501H10.9167C10.3642 44.2501 9.83425 44.0306 9.44355 43.6399C9.05285 43.2492 8.83335 42.7193 8.83335 42.1667V13.0001C8.83335 12.4475 9.05285 11.9176 9.44355 11.5269C9.83425 11.1362 10.3642 10.9167 10.9167 10.9167H20.3959C20.6349 9.73934 21.2737 8.68082 22.2039 7.9205C23.1341 7.16019 24.2986 6.74484 25.5 6.74484C26.7014 6.74484 27.8659 7.16019 28.7961 7.9205C29.7263 8.68082 30.3651 9.73934 30.6042 10.9167H40.0834C40.6359 10.9167 41.1658 11.1362 41.5565 11.5269C41.9472 11.9176 42.1667 12.4475 42.1667 13.0001V42.1667Z" fill="white"/>
</svg>
