<svg width="51" height="51" viewBox="0 0 51 51" fill="none" xmlns="http://www.w3.org/2000/svg">
<path d="M5.70837 20.2916H45.2917M5.70837 20.2916V42.1666C5.70837 42.7192 5.92787 43.2491 6.31857 43.6398C6.70927 44.0305 7.23917 44.25 7.79171 44.25H43.2084C43.7609 44.25 44.2908 44.0305 44.6815 43.6398C45.0722 43.2491 45.2917 42.7192 45.2917 42.1666V20.2916M5.70837 20.2916V9.87496C5.70837 9.32243 5.92787 8.79252 6.31857 8.40182C6.70927 8.01112 7.23917 7.79163 7.79171 7.79163H43.2084C43.7609 7.79163 44.2908 8.01112 44.6815 8.40182C45.0722 8.79252 45.2917 9.32243 45.2917 9.87496V20.2916" stroke="white" stroke-width="4" stroke-linejoin="round"/>
<path d="M17.1667 4.66663V13M33.8334 4.66663V13M29.6667 35.9166H35.9167M15.0834 35.9166H21.3334M29.6667 27.5833H35.9167M15.0834 27.5833H21.3334" stroke="white" stroke-width="4" stroke-linecap="round" stroke-linejoin="round"/>
</svg>
