<svg width="51" height="51" viewBox="0 0 51 51" fill="none" xmlns="http://www.w3.org/2000/svg">
<path d="M2.6875 44.25V38.4167C2.6875 37.2708 2.98264 36.1944 3.57292 35.1875C4.16319 34.1806 4.97917 33.4167 6.02083 32.8958C7.79167 31.9931 9.78819 31.2292 12.0104 30.6042C14.2326 29.9792 16.6806 29.6667 19.3542 29.6667C22.0278 29.6667 24.4757 29.9792 26.6979 30.6042C28.9201 31.2292 30.9167 31.9931 32.6875 32.8958C33.7292 33.4167 34.5451 34.1806 35.1354 35.1875C35.7257 36.1944 36.0208 37.2708 36.0208 38.4167V44.25H2.6875ZM6.85417 40.0833H31.8542V38.4167C31.8542 38.0347 31.759 37.6875 31.5687 37.375C31.3785 37.0625 31.1264 36.8194 30.8125 36.6458C29.5625 36.0208 27.9569 35.3958 25.9958 34.7708C24.0347 34.1458 21.8208 33.8333 19.3542 33.8333C16.8875 33.8333 14.6743 34.1458 12.7146 34.7708C10.7549 35.3958 9.14861 36.0208 7.89583 36.6458C7.58333 36.8194 7.33194 37.0625 7.14167 37.375C6.95139 37.6875 6.85556 38.0347 6.85417 38.4167V40.0833ZM19.3542 27.5833C17.0625 27.5833 15.1007 26.7674 13.4688 25.1354C11.8368 23.5035 11.0208 21.5417 11.0208 19.25H10.5C10.1875 19.25 9.93611 19.1549 9.74583 18.9646C9.55556 18.7743 9.45972 18.5222 9.45833 18.2083C9.45694 17.8944 9.55278 17.6424 9.74583 17.4521C9.93889 17.2618 10.1903 17.1667 10.5 17.1667H11.0208C11.0208 15.6042 11.4028 14.1979 12.1667 12.9479C12.9306 11.6979 13.9375 10.7083 15.1875 9.97917V11.9583C15.1875 12.2708 15.2833 12.5229 15.475 12.7146C15.6667 12.9062 15.9181 13.0014 16.2292 13C16.5403 12.9986 16.7924 12.9035 16.9854 12.7146C17.1785 12.5257 17.2736 12.2736 17.2708 11.9583V9.14583C17.5833 9.04167 17.9132 8.96389 18.2604 8.9125C18.6076 8.86111 18.9722 8.83472 19.3542 8.83333C19.7361 8.83194 20.1007 8.85833 20.4479 8.9125C20.7951 8.96667 21.125 9.04444 21.4375 9.14583V11.9583C21.4375 12.2708 21.5333 12.5229 21.725 12.7146C21.9167 12.9062 22.1681 13.0014 22.4792 13C22.7903 12.9986 23.0424 12.9035 23.2354 12.7146C23.4285 12.5257 23.5236 12.2736 23.5208 11.9583V9.97917C24.7708 10.7083 25.7778 11.6979 26.5417 12.9479C27.3056 14.1979 27.6875 15.6042 27.6875 17.1667H28.2083C28.5208 17.1667 28.7729 17.2625 28.9646 17.4542C29.1562 17.6458 29.2514 17.8972 29.25 18.2083C29.2486 18.5194 29.1535 18.7715 28.9646 18.9646C28.7757 19.1576 28.5236 19.2528 28.2083 19.25H27.6875C27.6875 21.5417 26.8715 23.5035 25.2396 25.1354C23.6076 26.7674 21.6458 27.5833 19.3542 27.5833ZM19.3542 23.4167C20.5 23.4167 21.4812 23.009 22.2979 22.1937C23.1146 21.3785 23.5222 20.3972 23.5208 19.25H15.1875C15.1875 20.3958 15.5958 21.3771 16.4125 22.1937C17.2292 23.0104 18.2097 23.4181 19.3542 23.4167ZM34.9792 31.75L34.6667 30.1875C34.4583 30.1181 34.259 30.0403 34.0688 29.9542C33.8785 29.8681 33.6958 29.7375 33.5208 29.5625L32.0625 30.0833L31.0208 28.2083L32.1667 27.1667V25.9167L31.0208 24.875L32.0625 23L33.5208 23.5208C33.6597 23.3819 33.8333 23.2604 34.0417 23.1562C34.25 23.0521 34.4583 22.9653 34.6667 22.8958L34.9792 21.3333H37.0625L37.375 22.8958C37.5833 22.9653 37.7917 23.0521 38 23.1562C38.2083 23.2604 38.3819 23.3819 38.5208 23.5208L39.9792 23L41.0208 24.875L39.875 25.9167V27.1667L41.0208 28.2083L39.9792 30.0833L38.5208 29.5625C38.3472 29.7361 38.1653 29.8667 37.975 29.9542C37.7847 30.0417 37.5847 30.1194 37.375 30.1875L37.0625 31.75H34.9792ZM36.0208 28.1042C36.4375 28.1042 36.8021 27.9479 37.1146 27.6354C37.4271 27.3229 37.5833 26.9583 37.5833 26.5417C37.5833 26.125 37.4271 25.7604 37.1146 25.4479C36.8021 25.1354 36.4375 24.9792 36.0208 24.9792C35.6042 24.9792 35.2396 25.1354 34.9271 25.4479C34.6146 25.7604 34.4583 26.125 34.4583 26.5417C34.4583 26.9583 34.6146 27.3229 34.9271 27.6354C35.2396 27.9479 35.6042 28.1042 36.0208 28.1042ZM39.7708 21.3333L39.3542 19.1458C39.0417 19.0417 38.7556 18.9118 38.4958 18.7562C38.2361 18.6007 38.0014 18.4181 37.7917 18.2083L35.6042 18.9375L34.1458 16.4375L35.9167 14.875C35.8472 14.7014 35.8125 14.5625 35.8125 14.4583V13.625C35.8125 13.5208 35.8472 13.3819 35.9167 13.2083L34.1458 11.6458L35.6042 9.14583L37.7917 9.875C38 9.66667 38.2347 9.48403 38.4958 9.32708C38.7569 9.17014 39.0431 9.04028 39.3542 8.9375L39.7708 6.75H42.6875L43.1042 8.9375C43.4167 9.04167 43.7035 9.17222 43.9646 9.32917C44.2257 9.48611 44.4597 9.66806 44.6667 9.875L46.8542 9.14583L48.3125 11.6458L46.5417 13.2083C46.6111 13.3819 46.6458 13.5208 46.6458 13.625V14.4583C46.6458 14.5625 46.6111 14.7014 46.5417 14.875L48.3125 16.4375L46.8542 18.9375L44.6667 18.2083C44.4583 18.4167 44.2243 18.5993 43.9646 18.7562C43.7049 18.9132 43.4181 19.0431 43.1042 19.1458L42.6875 21.3333H39.7708ZM41.2292 16.6458C41.9583 16.6458 42.575 16.3938 43.0792 15.8896C43.5833 15.3854 43.8347 14.7694 43.8333 14.0417C43.8319 13.3139 43.5799 12.6972 43.0771 12.1917C42.5743 11.6861 41.9583 11.4347 41.2292 11.4375C40.5 11.4403 39.8833 11.6924 39.3792 12.1937C38.875 12.6951 38.6236 13.3111 38.625 14.0417C38.6264 14.7722 38.8785 15.3889 39.3813 15.8917C39.884 16.3944 40.5 16.6458 41.2292 16.6458Z" fill="white"/>
</svg>
